<mxfile host="app.diagrams.net" modified="2023-08-26T18:47:37.095Z" agent="Mozilla/5.0 (Windows NT 10.0; Win64; x64) AppleWebKit/537.36 (KHTML, like Gecko) Chrome/116.0.0.0 Safari/537.36" etag="IRDqjPAXvHPuNCD2VRWR" version="21.6.9" type="device">
  <diagram id="R2lEEEUBdFMjLlhIrx00" name="Page-1">
    <mxGraphModel dx="3300" dy="1771" grid="1" gridSize="10" guides="1" tooltips="1" connect="1" arrows="1" fold="1" page="1" pageScale="1" pageWidth="850" pageHeight="1100" math="0" shadow="0" extFonts="Permanent Marker^https://fonts.googleapis.com/css?family=Permanent+Marker">
      <root>
        <mxCell id="0" />
        <mxCell id="1" parent="0" />
        <mxCell id="lEjw1TeFjgP80U_XgumD-1" value="admin" style="rounded=0;whiteSpace=wrap;html=1;strokeWidth=2;fontSize=17;fontStyle=1;fillColor=#dae8fc;strokeColor=#6c8ebf;" parent="1" vertex="1">
          <mxGeometry x="440" y="-320" width="120" height="40" as="geometry" />
        </mxCell>
        <mxCell id="lEjw1TeFjgP80U_XgumD-2" value="manage" style="rhombus;whiteSpace=wrap;html=1;strokeWidth=2;fontSize=17;fontStyle=1" parent="1" vertex="1">
          <mxGeometry x="200" y="-325" width="80" height="60" as="geometry" />
        </mxCell>
        <mxCell id="lEjw1TeFjgP80U_XgumD-3" value="patient" style="rounded=0;whiteSpace=wrap;html=1;strokeWidth=2;fontSize=17;fontStyle=1;fillColor=#ffe6cc;strokeColor=#d79b00;" parent="1" vertex="1">
          <mxGeometry x="950" y="-330" width="120" height="40" as="geometry" />
        </mxCell>
        <mxCell id="lEjw1TeFjgP80U_XgumD-4" value="appointment" style="rounded=0;whiteSpace=wrap;html=1;strokeWidth=2;fontSize=17;fontStyle=1;fillColor=#d5e8d4;strokeColor=#82b366;" parent="1" vertex="1">
          <mxGeometry x="427.5" y="210" width="120" height="40" as="geometry" />
        </mxCell>
        <mxCell id="lEjw1TeFjgP80U_XgumD-6" value="doctor" style="rounded=0;whiteSpace=wrap;html=1;strokeWidth=2;fontSize=17;fontStyle=1;fillColor=#f5f5f5;fontColor=#333333;strokeColor=#666666;" parent="1" vertex="1">
          <mxGeometry x="-200" y="-310" width="120" height="40" as="geometry" />
        </mxCell>
        <mxCell id="lEjw1TeFjgP80U_XgumD-28" value="&lt;span style=&quot;font-size: 17px;&quot;&gt;u_phone&lt;/span&gt;" style="ellipse;whiteSpace=wrap;html=1;strokeWidth=2;fontSize=17;fontStyle=5;fillColor=#dae8fc;gradientColor=#7ea6e0;strokeColor=#6c8ebf;" parent="1" vertex="1">
          <mxGeometry x="-130" y="170" width="120" height="40" as="geometry" />
        </mxCell>
        <mxCell id="lEjw1TeFjgP80U_XgumD-34" value="ad_username" style="ellipse;whiteSpace=wrap;html=1;strokeWidth=2;fontSize=17;fontStyle=5;fillColor=#dae8fc;gradientColor=#7ea6e0;strokeColor=#6c8ebf;" parent="1" vertex="1">
          <mxGeometry x="280" y="-420" width="120" height="40" as="geometry" />
        </mxCell>
        <mxCell id="lEjw1TeFjgP80U_XgumD-35" value="ad_pass" style="ellipse;shape=doubleEllipse;margin=3;whiteSpace=wrap;html=1;align=center;strokeWidth=2;fontSize=17;fontStyle=1;fillColor=#dae8fc;gradientColor=#7ea6e0;strokeColor=#6c8ebf;" parent="1" vertex="1">
          <mxGeometry x="250" y="-370" width="100" height="40" as="geometry" />
        </mxCell>
        <mxCell id="lEjw1TeFjgP80U_XgumD-36" value="" style="endArrow=none;html=1;rounded=0;entryX=1;entryY=0.5;entryDx=0;entryDy=0;exitX=0;exitY=0;exitDx=0;exitDy=0;strokeWidth=2;fontSize=17;fontStyle=1" parent="1" source="lEjw1TeFjgP80U_XgumD-1" target="lEjw1TeFjgP80U_XgumD-35" edge="1">
          <mxGeometry width="50" height="50" relative="1" as="geometry">
            <mxPoint x="625" y="-285" as="sourcePoint" />
            <mxPoint x="515" y="-225" as="targetPoint" />
          </mxGeometry>
        </mxCell>
        <mxCell id="lEjw1TeFjgP80U_XgumD-37" value="" style="endArrow=none;html=1;rounded=0;exitX=0.25;exitY=0;exitDx=0;exitDy=0;strokeWidth=2;fontSize=17;fontStyle=1;entryX=1;entryY=1;entryDx=0;entryDy=0;" parent="1" source="lEjw1TeFjgP80U_XgumD-1" target="lEjw1TeFjgP80U_XgumD-34" edge="1">
          <mxGeometry width="50" height="50" relative="1" as="geometry">
            <mxPoint x="635" y="-275" as="sourcePoint" />
            <mxPoint x="420" y="-410" as="targetPoint" />
          </mxGeometry>
        </mxCell>
        <mxCell id="lEjw1TeFjgP80U_XgumD-41" value="u_pname" style="ellipse;whiteSpace=wrap;html=1;strokeWidth=2;fontSize=17;fontStyle=1;fillColor=#d5e8d4;gradientColor=#97d077;strokeColor=#82b366;" parent="1" vertex="1">
          <mxGeometry x="660" y="90" width="120" height="40" as="geometry" />
        </mxCell>
        <mxCell id="lEjw1TeFjgP80U_XgumD-42" value="u_name" style="ellipse;whiteSpace=wrap;html=1;strokeWidth=2;fontSize=17;fontStyle=1;fillColor=#d5e8d4;gradientColor=#97d077;strokeColor=#82b366;" parent="1" vertex="1">
          <mxGeometry x="637.5" y="25" width="120" height="40" as="geometry" />
        </mxCell>
        <mxCell id="lEjw1TeFjgP80U_XgumD-43" value="" style="endArrow=none;html=1;rounded=0;entryX=0.5;entryY=1;entryDx=0;entryDy=0;exitX=1;exitY=0;exitDx=0;exitDy=0;strokeWidth=2;fontSize=17;fontStyle=1" parent="1" source="lEjw1TeFjgP80U_XgumD-4" target="lEjw1TeFjgP80U_XgumD-41" edge="1">
          <mxGeometry width="50" height="50" relative="1" as="geometry">
            <mxPoint x="532.5" y="180" as="sourcePoint" />
            <mxPoint x="832.5" y="90" as="targetPoint" />
          </mxGeometry>
        </mxCell>
        <mxCell id="lEjw1TeFjgP80U_XgumD-44" value="u_phone" style="ellipse;whiteSpace=wrap;html=1;strokeWidth=2;fontSize=17;fontStyle=5;fillColor=#d5e8d4;gradientColor=#97d077;strokeColor=#82b366;" parent="1" vertex="1">
          <mxGeometry x="500" y="50" width="120" height="40" as="geometry" />
        </mxCell>
        <mxCell id="lEjw1TeFjgP80U_XgumD-45" value="" style="endArrow=none;html=1;rounded=0;entryX=0.5;entryY=1;entryDx=0;entryDy=0;exitX=0.804;exitY=-0.124;exitDx=0;exitDy=0;exitPerimeter=0;strokeWidth=2;fontSize=17;fontStyle=1" parent="1" source="lEjw1TeFjgP80U_XgumD-4" target="lEjw1TeFjgP80U_XgumD-44" edge="1">
          <mxGeometry width="50" height="50" relative="1" as="geometry">
            <mxPoint x="472.5" y="200" as="sourcePoint" />
            <mxPoint x="552.5" y="130" as="targetPoint" />
          </mxGeometry>
        </mxCell>
        <mxCell id="lEjw1TeFjgP80U_XgumD-46" value="" style="endArrow=none;html=1;rounded=0;entryX=0.5;entryY=1;entryDx=0;entryDy=0;exitX=0.898;exitY=0.007;exitDx=0;exitDy=0;strokeWidth=2;fontSize=17;fontStyle=1;exitPerimeter=0;" parent="1" source="lEjw1TeFjgP80U_XgumD-4" target="lEjw1TeFjgP80U_XgumD-42" edge="1">
          <mxGeometry width="50" height="50" relative="1" as="geometry">
            <mxPoint x="481.5" y="183" as="sourcePoint" />
            <mxPoint x="562.5" y="140" as="targetPoint" />
          </mxGeometry>
        </mxCell>
        <mxCell id="lEjw1TeFjgP80U_XgumD-51" value="u_email" style="ellipse;whiteSpace=wrap;html=1;strokeWidth=2;fontSize=17;fontStyle=1;fillColor=#d5e8d4;gradientColor=#97d077;strokeColor=#82b366;" parent="1" vertex="1">
          <mxGeometry x="687.5" y="150" width="120" height="40" as="geometry" />
        </mxCell>
        <mxCell id="lEjw1TeFjgP80U_XgumD-52" value="" style="endArrow=none;html=1;rounded=0;entryX=0.376;entryY=1.008;entryDx=0;entryDy=0;entryPerimeter=0;exitX=1;exitY=0.25;exitDx=0;exitDy=0;strokeWidth=2;fontSize=17;fontStyle=1" parent="1" source="lEjw1TeFjgP80U_XgumD-4" target="lEjw1TeFjgP80U_XgumD-51" edge="1">
          <mxGeometry width="50" height="50" relative="1" as="geometry">
            <mxPoint x="654.5" y="104" as="sourcePoint" />
            <mxPoint x="862.5" y="70" as="targetPoint" />
          </mxGeometry>
        </mxCell>
        <mxCell id="lEjw1TeFjgP80U_XgumD-56" value="p_pname" style="ellipse;whiteSpace=wrap;html=1;strokeWidth=2;fontSize=17;fontStyle=1;fillColor=#fff2cc;gradientColor=#ffd966;strokeColor=#d6b656;" parent="1" vertex="1">
          <mxGeometry x="1260" y="-450" width="120" height="40" as="geometry" />
        </mxCell>
        <mxCell id="lEjw1TeFjgP80U_XgumD-59" value="p_shift" style="ellipse;whiteSpace=wrap;html=1;strokeWidth=2;fontSize=17;fontStyle=1;fillColor=#fff2cc;gradientColor=#ffd966;strokeColor=#d6b656;" parent="1" vertex="1">
          <mxGeometry x="1110" y="-200" width="120" height="40" as="geometry" />
        </mxCell>
        <mxCell id="lEjw1TeFjgP80U_XgumD-60" value="" style="endArrow=none;html=1;rounded=0;entryX=0.219;entryY=0.145;entryDx=0;entryDy=0;entryPerimeter=0;exitX=0.75;exitY=1;exitDx=0;exitDy=0;strokeWidth=2;fontSize=17;fontStyle=1" parent="1" source="lEjw1TeFjgP80U_XgumD-3" target="lEjw1TeFjgP80U_XgumD-59" edge="1">
          <mxGeometry width="50" height="50" relative="1" as="geometry">
            <mxPoint x="1600" y="-510" as="sourcePoint" />
            <mxPoint x="905.5999999999999" y="-238.63999999999987" as="targetPoint" />
          </mxGeometry>
        </mxCell>
        <mxCell id="lEjw1TeFjgP80U_XgumD-61" value="p_problem" style="ellipse;whiteSpace=wrap;html=1;strokeWidth=2;fontSize=17;fontStyle=1;fillColor=#fff2cc;gradientColor=#ffd966;strokeColor=#d6b656;" parent="1" vertex="1">
          <mxGeometry x="1155" y="-260" width="120" height="40" as="geometry" />
        </mxCell>
        <mxCell id="lEjw1TeFjgP80U_XgumD-62" value="p_address" style="ellipse;whiteSpace=wrap;html=1;strokeWidth=2;fontSize=17;fontStyle=1;fillColor=#fff2cc;gradientColor=#ffd966;strokeColor=#d6b656;" parent="1" vertex="1">
          <mxGeometry x="1260" y="-350" width="120" height="40" as="geometry" />
        </mxCell>
        <mxCell id="lEjw1TeFjgP80U_XgumD-63" value="" style="endArrow=none;html=1;rounded=0;entryX=0;entryY=0.5;entryDx=0;entryDy=0;strokeWidth=2;fontSize=17;fontStyle=1" parent="1" target="lEjw1TeFjgP80U_XgumD-62" edge="1">
          <mxGeometry width="50" height="50" relative="1" as="geometry">
            <mxPoint x="1070" y="-310" as="sourcePoint" />
            <mxPoint x="2035" y="-690" as="targetPoint" />
          </mxGeometry>
        </mxCell>
        <mxCell id="lEjw1TeFjgP80U_XgumD-64" value="p_dpt&lt;br&gt;" style="ellipse;whiteSpace=wrap;html=1;strokeWidth=2;fontSize=17;fontStyle=1;fillColor=#fff2cc;gradientColor=#ffd966;strokeColor=#d6b656;" parent="1" vertex="1">
          <mxGeometry x="1240" y="-310" width="120" height="40" as="geometry" />
        </mxCell>
        <mxCell id="lEjw1TeFjgP80U_XgumD-65" value="" style="endArrow=none;html=1;rounded=0;exitX=1;exitY=0;exitDx=0;exitDy=0;strokeWidth=2;fontSize=17;fontStyle=1" parent="1" source="lEjw1TeFjgP80U_XgumD-3" target="lEjw1TeFjgP80U_XgumD-56" edge="1">
          <mxGeometry width="50" height="50" relative="1" as="geometry">
            <mxPoint x="911" y="528" as="sourcePoint" />
            <mxPoint x="480" y="670" as="targetPoint" />
          </mxGeometry>
        </mxCell>
        <mxCell id="lEjw1TeFjgP80U_XgumD-67" value="" style="endArrow=none;html=1;rounded=0;entryX=0;entryY=0.5;entryDx=0;entryDy=0;exitX=1;exitY=0.5;exitDx=0;exitDy=0;strokeWidth=2;fontSize=17;fontStyle=1" parent="1" source="lEjw1TeFjgP80U_XgumD-3" target="lEjw1TeFjgP80U_XgumD-64" edge="1">
          <mxGeometry width="50" height="50" relative="1" as="geometry">
            <mxPoint x="1570" y="-530" as="sourcePoint" />
            <mxPoint x="1695" y="-540" as="targetPoint" />
          </mxGeometry>
        </mxCell>
        <mxCell id="lEjw1TeFjgP80U_XgumD-68" value="" style="endArrow=none;html=1;rounded=0;entryX=0.5;entryY=0;entryDx=0;entryDy=0;strokeWidth=2;fontSize=17;fontStyle=1;" parent="1" target="lEjw1TeFjgP80U_XgumD-61" edge="1">
          <mxGeometry width="50" height="50" relative="1" as="geometry">
            <mxPoint x="1060" y="-290" as="sourcePoint" />
            <mxPoint x="1705" y="-530" as="targetPoint" />
          </mxGeometry>
        </mxCell>
        <mxCell id="lEjw1TeFjgP80U_XgumD-72" value="d_dpt" style="ellipse;whiteSpace=wrap;html=1;strokeWidth=2;fontSize=17;fontStyle=1;fillColor=#f5f5f5;gradientColor=#b3b3b3;strokeColor=#666666;" parent="1" vertex="1">
          <mxGeometry x="-240" y="-520" width="120" height="40" as="geometry" />
        </mxCell>
        <mxCell id="lEjw1TeFjgP80U_XgumD-73" value="d_password" style="ellipse;whiteSpace=wrap;html=1;strokeWidth=2;fontSize=17;fontStyle=1;fillColor=#f5f5f5;gradientColor=#b3b3b3;strokeColor=#666666;" parent="1" vertex="1">
          <mxGeometry x="-120" y="-190" width="120" height="40" as="geometry" />
        </mxCell>
        <mxCell id="lEjw1TeFjgP80U_XgumD-74" value="" style="endArrow=none;html=1;rounded=0;entryX=0.5;entryY=1;entryDx=0;entryDy=0;strokeWidth=2;fontSize=17;fontStyle=1;exitX=0.583;exitY=0;exitDx=0;exitDy=0;exitPerimeter=0;" parent="1" source="lEjw1TeFjgP80U_XgumD-6" target="lEjw1TeFjgP80U_XgumD-72" edge="1">
          <mxGeometry width="50" height="50" relative="1" as="geometry">
            <mxPoint x="-120" y="-320" as="sourcePoint" />
            <mxPoint x="359.88" y="-420" as="targetPoint" />
            <Array as="points" />
          </mxGeometry>
        </mxCell>
        <mxCell id="lEjw1TeFjgP80U_XgumD-76" value="d_name" style="ellipse;whiteSpace=wrap;html=1;strokeWidth=2;fontSize=17;fontStyle=1;fillColor=#f5f5f5;gradientColor=#b3b3b3;strokeColor=#666666;" parent="1" vertex="1">
          <mxGeometry x="-350" y="-420" width="120" height="40" as="geometry" />
        </mxCell>
        <mxCell id="lEjw1TeFjgP80U_XgumD-77" value="d_username" style="ellipse;whiteSpace=wrap;html=1;strokeWidth=2;fontSize=17;fontStyle=1;fillColor=#f5f5f5;gradientColor=#b3b3b3;strokeColor=#666666;" parent="1" vertex="1">
          <mxGeometry x="90" y="-380" width="120" height="40" as="geometry" />
        </mxCell>
        <mxCell id="lEjw1TeFjgP80U_XgumD-78" value="" style="endArrow=none;html=1;rounded=0;entryX=0;entryY=0.5;entryDx=0;entryDy=0;exitX=1;exitY=0.25;exitDx=0;exitDy=0;strokeWidth=2;fontSize=17;fontStyle=1" parent="1" source="lEjw1TeFjgP80U_XgumD-6" target="lEjw1TeFjgP80U_XgumD-77" edge="1">
          <mxGeometry width="50" height="50" relative="1" as="geometry">
            <mxPoint x="-85.12" y="-290" as="sourcePoint" />
            <mxPoint x="99.99999999999943" y="-289.67999999999984" as="targetPoint" />
          </mxGeometry>
        </mxCell>
        <mxCell id="lEjw1TeFjgP80U_XgumD-79" value="&lt;u style=&quot;font-size: 17px;&quot;&gt;d_designation&lt;/u&gt;" style="ellipse;whiteSpace=wrap;html=1;strokeWidth=2;fontSize=17;fontStyle=1;fillColor=#f5f5f5;gradientColor=#b3b3b3;strokeColor=#666666;" parent="1" vertex="1">
          <mxGeometry x="60" y="-270" width="120" height="40" as="geometry" />
        </mxCell>
        <mxCell id="lEjw1TeFjgP80U_XgumD-80" value="" style="endArrow=none;html=1;rounded=0;strokeWidth=2;fontSize=17;fontStyle=1;entryX=0.414;entryY=0.008;entryDx=0;entryDy=0;entryPerimeter=0;" parent="1" target="lEjw1TeFjgP80U_XgumD-73" edge="1">
          <mxGeometry width="50" height="50" relative="1" as="geometry">
            <mxPoint x="-105.12" y="-270" as="sourcePoint" />
            <mxPoint x="-95.12" y="-210" as="targetPoint" />
          </mxGeometry>
        </mxCell>
        <mxCell id="lEjw1TeFjgP80U_XgumD-82" value="" style="endArrow=none;html=1;rounded=0;entryX=-0.01;entryY=0.333;entryDx=0;entryDy=0;strokeWidth=2;fontSize=17;fontStyle=1;entryPerimeter=0;" parent="1" target="lEjw1TeFjgP80U_XgumD-79" edge="1">
          <mxGeometry width="50" height="50" relative="1" as="geometry">
            <mxPoint x="-80" y="-280" as="sourcePoint" />
            <mxPoint x="54.87999999998317" y="-260" as="targetPoint" />
          </mxGeometry>
        </mxCell>
        <mxCell id="lEjw1TeFjgP80U_XgumD-83" value="" style="endArrow=none;html=1;rounded=0;entryX=0.081;entryY=0.116;entryDx=0;entryDy=0;entryPerimeter=0;exitX=1;exitY=0.75;exitDx=0;exitDy=0;strokeWidth=2;fontSize=17;fontStyle=1" parent="1" edge="1">
          <mxGeometry width="50" height="50" relative="1" as="geometry">
            <mxPoint x="-85.12" y="-270" as="sourcePoint" />
            <mxPoint x="4.599999999999795" y="-225.35999999999967" as="targetPoint" />
          </mxGeometry>
        </mxCell>
        <mxCell id="lEjw1TeFjgP80U_XgumD-84" value="" style="endArrow=none;html=1;rounded=0;entryX=0;entryY=0.5;entryDx=0;entryDy=0;exitX=1.001;exitY=0.119;exitDx=0;exitDy=0;strokeWidth=2;fontSize=17;fontStyle=1;exitPerimeter=0;" parent="1" source="lEjw1TeFjgP80U_XgumD-6" target="lEjw1TeFjgP80U_XgumD-85" edge="1">
          <mxGeometry width="50" height="50" relative="1" as="geometry">
            <mxPoint x="-85.12" y="-290" as="sourcePoint" />
            <mxPoint x="64.88" y="-360" as="targetPoint" />
          </mxGeometry>
        </mxCell>
        <mxCell id="lEjw1TeFjgP80U_XgumD-85" value="d_phone" style="ellipse;shape=doubleEllipse;margin=3;whiteSpace=wrap;html=1;align=center;strokeWidth=2;fontSize=17;fontStyle=1;fillColor=#f5f5f5;gradientColor=#b3b3b3;strokeColor=#666666;" parent="1" vertex="1">
          <mxGeometry x="-55" y="-400" width="100" height="40" as="geometry" />
        </mxCell>
        <mxCell id="lEjw1TeFjgP80U_XgumD-130" value="" style="endArrow=none;html=1;rounded=0;entryX=0;entryY=0.5;entryDx=0;entryDy=0;exitX=1;exitY=0.25;exitDx=0;exitDy=0;strokeWidth=2;fontSize=17;fontStyle=1" parent="1" source="lEjw1TeFjgP80U_XgumD-3" target="lEjw1TeFjgP80U_XgumD-55" edge="1">
          <mxGeometry width="50" height="50" relative="1" as="geometry">
            <mxPoint x="1080" y="-320" as="sourcePoint" />
            <mxPoint x="1710" y="-610" as="targetPoint" />
          </mxGeometry>
        </mxCell>
        <mxCell id="lEjw1TeFjgP80U_XgumD-55" value="p_email" style="ellipse;whiteSpace=wrap;html=1;strokeWidth=2;fontSize=17;fontStyle=1;fillColor=#fff2cc;gradientColor=#ffd966;strokeColor=#d6b656;" parent="1" vertex="1">
          <mxGeometry x="1240" y="-400" width="120" height="40" as="geometry" />
        </mxCell>
        <mxCell id="lEjw1TeFjgP80U_XgumD-135" value="u_address" style="ellipse;whiteSpace=wrap;html=1;strokeWidth=2;fontSize=17;fontStyle=1;fillColor=#d5e8d4;gradientColor=#97d077;strokeColor=#82b366;" parent="1" vertex="1">
          <mxGeometry x="707.5" y="200" width="120" height="40" as="geometry" />
        </mxCell>
        <mxCell id="lEjw1TeFjgP80U_XgumD-136" value="" style="endArrow=none;html=1;rounded=0;entryX=0;entryY=0.5;entryDx=0;entryDy=0;exitX=1;exitY=0.5;exitDx=0;exitDy=0;strokeWidth=2;fontSize=17;fontStyle=1" parent="1" source="lEjw1TeFjgP80U_XgumD-4" target="lEjw1TeFjgP80U_XgumD-135" edge="1">
          <mxGeometry width="50" height="50" relative="1" as="geometry">
            <mxPoint x="557.5" y="290" as="sourcePoint" />
            <mxPoint x="872.5" y="140" as="targetPoint" />
          </mxGeometry>
        </mxCell>
        <mxCell id="lEjw1TeFjgP80U_XgumD-137" value="u_dpt" style="ellipse;whiteSpace=wrap;html=1;strokeWidth=2;fontSize=17;fontStyle=1;fillColor=#d5e8d4;gradientColor=#97d077;strokeColor=#82b366;" parent="1" vertex="1">
          <mxGeometry x="707.5" y="270" width="120" height="40" as="geometry" />
        </mxCell>
        <mxCell id="lEjw1TeFjgP80U_XgumD-138" value="" style="endArrow=none;html=1;rounded=0;entryX=0;entryY=0.5;entryDx=0;entryDy=0;exitX=1;exitY=1;exitDx=0;exitDy=0;strokeWidth=2;fontSize=17;fontStyle=1" parent="1" source="lEjw1TeFjgP80U_XgumD-4" target="lEjw1TeFjgP80U_XgumD-137" edge="1">
          <mxGeometry width="50" height="50" relative="1" as="geometry">
            <mxPoint x="557.5" y="360" as="sourcePoint" />
            <mxPoint x="872.5" y="210" as="targetPoint" />
          </mxGeometry>
        </mxCell>
        <mxCell id="lEjw1TeFjgP80U_XgumD-139" value="" style="endArrow=none;html=1;rounded=0;entryX=1;entryY=1;entryDx=0;entryDy=0;exitX=0.413;exitY=0.007;exitDx=0;exitDy=0;strokeWidth=2;fontSize=17;fontStyle=1;exitPerimeter=0;" parent="1" source="lEjw1TeFjgP80U_XgumD-4" edge="1">
          <mxGeometry width="50" height="50" relative="1" as="geometry">
            <mxPoint x="476.5" y="222" as="sourcePoint" />
            <mxPoint x="449.9264068711923" y="124.14213562373106" as="targetPoint" />
          </mxGeometry>
        </mxCell>
        <mxCell id="lEjw1TeFjgP80U_XgumD-143" value="&lt;u style=&quot;font-size: 17px;&quot;&gt;d_gender&lt;/u&gt;" style="ellipse;whiteSpace=wrap;html=1;strokeWidth=2;fontSize=17;fontStyle=1;fillColor=#f5f5f5;gradientColor=#b3b3b3;strokeColor=#666666;" parent="1" vertex="1">
          <mxGeometry x="-10" y="-230" width="120" height="40" as="geometry" />
        </mxCell>
        <mxCell id="lEjw1TeFjgP80U_XgumD-144" value="d_id" style="ellipse;whiteSpace=wrap;html=1;strokeWidth=2;fontSize=17;fontStyle=1;fillColor=#f5f5f5;gradientColor=#b3b3b3;strokeColor=#666666;" parent="1" vertex="1">
          <mxGeometry x="-380" y="-370" width="120" height="40" as="geometry" />
        </mxCell>
        <mxCell id="lEjw1TeFjgP80U_XgumD-146" value="" style="endArrow=none;html=1;rounded=0;entryX=1;entryY=1;entryDx=0;entryDy=0;strokeWidth=2;fontSize=17;fontStyle=1" parent="1" target="lEjw1TeFjgP80U_XgumD-144" edge="1">
          <mxGeometry width="50" height="50" relative="1" as="geometry">
            <mxPoint x="-200" y="-300" as="sourcePoint" />
            <mxPoint x="74.88" y="-350" as="targetPoint" />
          </mxGeometry>
        </mxCell>
        <mxCell id="lEjw1TeFjgP80U_XgumD-147" value="" style="endArrow=none;html=1;rounded=0;entryX=1;entryY=1;entryDx=0;entryDy=0;exitX=0;exitY=0.25;exitDx=0;exitDy=0;strokeWidth=2;fontSize=17;fontStyle=1" parent="1" source="lEjw1TeFjgP80U_XgumD-6" target="lEjw1TeFjgP80U_XgumD-76" edge="1">
          <mxGeometry width="50" height="50" relative="1" as="geometry">
            <mxPoint x="-65.12" y="-270" as="sourcePoint" />
            <mxPoint x="84.88" y="-340" as="targetPoint" />
          </mxGeometry>
        </mxCell>
        <mxCell id="lEjw1TeFjgP80U_XgumD-148" value="" style="endArrow=none;html=1;rounded=0;exitX=0.25;exitY=0;exitDx=0;exitDy=0;strokeWidth=2;fontSize=17;fontStyle=1;" parent="1" source="lEjw1TeFjgP80U_XgumD-6" edge="1">
          <mxGeometry width="50" height="50" relative="1" as="geometry">
            <mxPoint x="-55.120000000000005" y="-260" as="sourcePoint" />
            <mxPoint x="-230.1360607616789" y="-430.272121523358" as="targetPoint" />
          </mxGeometry>
        </mxCell>
        <mxCell id="lEjw1TeFjgP80U_XgumD-149" value="&lt;u&gt;p_name&lt;/u&gt;" style="ellipse;whiteSpace=wrap;html=1;strokeWidth=2;fontSize=17;fontStyle=1;fillColor=#fff2cc;gradientColor=#ffd966;strokeColor=#d6b656;" parent="1" vertex="1">
          <mxGeometry x="1060" y="-450" width="120" height="40" as="geometry" />
        </mxCell>
        <mxCell id="lEjw1TeFjgP80U_XgumD-150" value="" style="endArrow=none;html=1;rounded=0;exitX=0.5;exitY=1;exitDx=0;exitDy=0;strokeWidth=2;fontSize=17;fontStyle=1;entryX=0.704;entryY=-0.012;entryDx=0;entryDy=0;entryPerimeter=0;" parent="1" source="lEjw1TeFjgP80U_XgumD-149" target="lEjw1TeFjgP80U_XgumD-3" edge="1">
          <mxGeometry width="50" height="50" relative="1" as="geometry">
            <mxPoint x="1050" y="-280" as="sourcePoint" />
            <mxPoint x="940" y="-310" as="targetPoint" />
          </mxGeometry>
        </mxCell>
        <mxCell id="lEjw1TeFjgP80U_XgumD-151" value="&lt;u&gt;p_id&lt;/u&gt;" style="ellipse;whiteSpace=wrap;html=1;strokeWidth=2;fontSize=17;fontStyle=1;fillColor=#fff2cc;gradientColor=#ffd966;strokeColor=#d6b656;" parent="1" vertex="1">
          <mxGeometry x="770" y="-447" width="120" height="40" as="geometry" />
        </mxCell>
        <mxCell id="lEjw1TeFjgP80U_XgumD-153" value="" style="endArrow=none;html=1;rounded=0;exitX=1;exitY=0.5;exitDx=0;exitDy=0;strokeWidth=2;fontSize=17;fontStyle=1;entryX=0.25;entryY=0;entryDx=0;entryDy=0;" parent="1" source="lEjw1TeFjgP80U_XgumD-151" target="lEjw1TeFjgP80U_XgumD-3" edge="1">
          <mxGeometry width="50" height="50" relative="1" as="geometry">
            <mxPoint x="1050" y="-280" as="sourcePoint" />
            <mxPoint x="970" y="-335" as="targetPoint" />
          </mxGeometry>
        </mxCell>
        <mxCell id="lEjw1TeFjgP80U_XgumD-155" value="" style="endArrow=none;html=1;rounded=0;exitX=0;exitY=0.75;exitDx=0;exitDy=0;strokeWidth=2;fontSize=17;fontStyle=1;" parent="1" source="lEjw1TeFjgP80U_XgumD-3" edge="1">
          <mxGeometry width="50" height="50" relative="1" as="geometry">
            <mxPoint x="1050" y="-280" as="sourcePoint" />
            <mxPoint x="860" y="-280" as="targetPoint" />
          </mxGeometry>
        </mxCell>
        <mxCell id="lEjw1TeFjgP80U_XgumD-159" value="" style="endArrow=none;html=1;rounded=0;entryX=0.5;entryY=1;entryDx=0;entryDy=0;strokeWidth=2;fontSize=17;fontStyle=1" parent="1" source="lEjw1TeFjgP80U_XgumD-4" target="wDb7TstbsJTFzF3oQ880-28" edge="1">
          <mxGeometry width="50" height="50" relative="1" as="geometry">
            <mxPoint x="597.5" y="-40" as="sourcePoint" />
            <mxPoint x="487.49999999999955" y="30" as="targetPoint" />
          </mxGeometry>
        </mxCell>
        <mxCell id="lEjw1TeFjgP80U_XgumD-174" value="" style="endArrow=none;html=1;rounded=0;strokeWidth=2;fontSize=17;fontStyle=1;entryX=0;entryY=0.5;entryDx=0;entryDy=0;" parent="1" target="lEjw1TeFjgP80U_XgumD-2" edge="1">
          <mxGeometry width="50" height="50" relative="1" as="geometry">
            <mxPoint x="-80" y="-290" as="sourcePoint" />
            <mxPoint x="210" y="-310" as="targetPoint" />
          </mxGeometry>
        </mxCell>
        <mxCell id="lEjw1TeFjgP80U_XgumD-192" value="" style="endArrow=none;html=1;rounded=0;strokeWidth=2;fontSize=17;fontStyle=0;exitX=1;exitY=0.75;exitDx=0;exitDy=0;entryX=0;entryY=0.5;entryDx=0;entryDy=0;" parent="1" source="wDb7TstbsJTFzF3oQ880-36" target="lEjw1TeFjgP80U_XgumD-196" edge="1">
          <mxGeometry width="50" height="50" relative="1" as="geometry">
            <mxPoint x="190.00000000000045" y="230" as="sourcePoint" />
            <mxPoint x="520" y="115" as="targetPoint" />
          </mxGeometry>
        </mxCell>
        <mxCell id="lEjw1TeFjgP80U_XgumD-193" value="check&lt;br&gt;" style="rhombus;whiteSpace=wrap;html=1;strokeWidth=2;fontSize=17;fontStyle=1" parent="1" vertex="1">
          <mxGeometry x="260" y="-85" width="150" height="90" as="geometry" />
        </mxCell>
        <mxCell id="lEjw1TeFjgP80U_XgumD-195" value="" style="endArrow=none;html=1;rounded=0;strokeWidth=2;fontSize=17;fontStyle=0;exitX=1;exitY=0.5;exitDx=0;exitDy=0;entryX=0;entryY=0.5;entryDx=0;entryDy=0;" parent="1" source="lEjw1TeFjgP80U_XgumD-196" target="lEjw1TeFjgP80U_XgumD-4" edge="1">
          <mxGeometry width="50" height="50" relative="1" as="geometry">
            <mxPoint x="387.5" y="200" as="sourcePoint" />
            <mxPoint x="485.5" y="330" as="targetPoint" />
          </mxGeometry>
        </mxCell>
        <mxCell id="lEjw1TeFjgP80U_XgumD-196" value="create" style="rhombus;whiteSpace=wrap;html=1;strokeWidth=2;fontSize=17;fontStyle=1" parent="1" vertex="1">
          <mxGeometry x="212.5" y="185" width="150" height="90" as="geometry" />
        </mxCell>
        <mxCell id="lEjw1TeFjgP80U_XgumD-199" value="" style="endArrow=none;html=1;rounded=0;strokeWidth=2;fontSize=17;fontStyle=1;entryX=0;entryY=0.5;entryDx=0;entryDy=0;exitX=1;exitY=0.5;exitDx=0;exitDy=0;" parent="1" source="wDb7TstbsJTFzF3oQ880-46" target="lEjw1TeFjgP80U_XgumD-3" edge="1">
          <mxGeometry width="50" height="50" relative="1" as="geometry">
            <mxPoint x="700" y="-300" as="sourcePoint" />
            <mxPoint x="670" y="-340" as="targetPoint" />
          </mxGeometry>
        </mxCell>
        <mxCell id="lEjw1TeFjgP80U_XgumD-226" value="check&amp;nbsp;" style="rhombus;whiteSpace=wrap;html=1;strokeWidth=2;fontSize=17;fontStyle=1" parent="1" vertex="1">
          <mxGeometry x="-520" y="-340" width="120" height="110" as="geometry" />
        </mxCell>
        <mxCell id="lEjw1TeFjgP80U_XgumD-227" value="create&amp;nbsp;" style="rhombus;whiteSpace=wrap;html=1;strokeWidth=2;fontSize=17;fontStyle=1" parent="1" vertex="1">
          <mxGeometry x="-520" y="-190" width="120" height="110" as="geometry" />
        </mxCell>
        <mxCell id="lEjw1TeFjgP80U_XgumD-228" value="check" style="rhombus;whiteSpace=wrap;html=1;strokeWidth=2;fontSize=17;fontStyle=1" parent="1" vertex="1">
          <mxGeometry x="-510" y="-50" width="120" height="110" as="geometry" />
        </mxCell>
        <mxCell id="lEjw1TeFjgP80U_XgumD-230" value="" style="endArrow=none;html=1;rounded=0;strokeWidth=2;fontSize=17;fontStyle=1;exitX=1;exitY=0.5;exitDx=0;exitDy=0;entryX=0;entryY=0.5;entryDx=0;entryDy=0;" parent="1" source="lEjw1TeFjgP80U_XgumD-243" target="lEjw1TeFjgP80U_XgumD-227" edge="1">
          <mxGeometry width="50" height="50" relative="1" as="geometry">
            <mxPoint x="-200" y="-280" as="sourcePoint" />
            <mxPoint x="-570" y="-100" as="targetPoint" />
          </mxGeometry>
        </mxCell>
        <mxCell id="lEjw1TeFjgP80U_XgumD-232" value="patient_name" style="ellipse;whiteSpace=wrap;html=1;strokeWidth=2;fontSize=17;fontStyle=1;fillColor=#f5f5f5;gradientColor=#b3b3b3;strokeColor=#666666;" parent="1" vertex="1">
          <mxGeometry x="-1005" y="-50" width="120" height="40" as="geometry" />
        </mxCell>
        <mxCell id="lEjw1TeFjgP80U_XgumD-233" value="" style="endArrow=none;html=1;rounded=0;entryX=1;entryY=0;entryDx=0;entryDy=0;exitX=0;exitY=1;exitDx=0;exitDy=0;strokeWidth=2;fontSize=17;fontStyle=1" parent="1" source="lEjw1TeFjgP80U_XgumD-243" target="lEjw1TeFjgP80U_XgumD-232" edge="1">
          <mxGeometry width="50" height="50" relative="1" as="geometry">
            <mxPoint x="-484" y="-230" as="sourcePoint" />
            <mxPoint x="-35.120000000000005" y="-340" as="targetPoint" />
            <Array as="points" />
          </mxGeometry>
        </mxCell>
        <mxCell id="lEjw1TeFjgP80U_XgumD-234" value="a_pname" style="ellipse;whiteSpace=wrap;html=1;strokeWidth=2;fontSize=17;fontStyle=1;fillColor=#f5f5f5;gradientColor=#b3b3b3;strokeColor=#666666;" parent="1" vertex="1">
          <mxGeometry x="-780" y="-460" width="120" height="40" as="geometry" />
        </mxCell>
        <mxCell id="lEjw1TeFjgP80U_XgumD-235" value="&lt;u&gt;a_id&lt;/u&gt;" style="ellipse;whiteSpace=wrap;html=1;strokeWidth=2;fontSize=17;fontStyle=1;fillColor=#f5f5f5;gradientColor=#b3b3b3;strokeColor=#666666;" parent="1" vertex="1">
          <mxGeometry x="-680" y="-490" width="120" height="40" as="geometry" />
        </mxCell>
        <mxCell id="lEjw1TeFjgP80U_XgumD-236" value="&lt;u&gt;pres_id&lt;/u&gt;" style="ellipse;whiteSpace=wrap;html=1;strokeWidth=2;fontSize=17;fontStyle=1;fillColor=#f5f5f5;gradientColor=#b3b3b3;strokeColor=#666666;" parent="1" vertex="1">
          <mxGeometry x="-970" y="-110" width="120" height="40" as="geometry" />
        </mxCell>
        <mxCell id="lEjw1TeFjgP80U_XgumD-237" value="" style="endArrow=none;html=1;rounded=0;entryX=1;entryY=0.5;entryDx=0;entryDy=0;strokeWidth=2;fontSize=17;fontStyle=1;exitX=0;exitY=0.5;exitDx=0;exitDy=0;" parent="1" source="lEjw1TeFjgP80U_XgumD-226" target="lEjw1TeFjgP80U_XgumD-241" edge="1">
          <mxGeometry width="50" height="50" relative="1" as="geometry">
            <mxPoint x="-575" y="-350" as="sourcePoint" />
            <mxPoint x="-300.12" y="-420" as="targetPoint" />
          </mxGeometry>
        </mxCell>
        <mxCell id="lEjw1TeFjgP80U_XgumD-238" value="" style="endArrow=none;html=1;rounded=0;strokeWidth=2;fontSize=17;fontStyle=1;exitX=0.417;exitY=0.125;exitDx=0;exitDy=0;exitPerimeter=0;" parent="1" source="lEjw1TeFjgP80U_XgumD-241" edge="1">
          <mxGeometry width="50" height="50" relative="1" as="geometry">
            <mxPoint x="-670" y="-310" as="sourcePoint" />
            <mxPoint x="-700" y="-420" as="targetPoint" />
          </mxGeometry>
        </mxCell>
        <mxCell id="lEjw1TeFjgP80U_XgumD-239" value="" style="endArrow=none;html=1;rounded=0;entryX=0.5;entryY=1;entryDx=0;entryDy=0;exitX=0.75;exitY=0;exitDx=0;exitDy=0;strokeWidth=2;fontSize=17;fontStyle=1" parent="1" source="lEjw1TeFjgP80U_XgumD-241" target="lEjw1TeFjgP80U_XgumD-235" edge="1">
          <mxGeometry width="50" height="50" relative="1" as="geometry">
            <mxPoint x="-625" y="-299.14" as="sourcePoint" />
            <mxPoint x="-492.57359312880726" y="-409.9978643762689" as="targetPoint" />
          </mxGeometry>
        </mxCell>
        <mxCell id="lEjw1TeFjgP80U_XgumD-241" value="appointment" style="rounded=0;whiteSpace=wrap;html=1;strokeWidth=2;fontSize=17;fontStyle=1;fillColor=#f5f5f5;fontColor=#333333;strokeColor=#666666;" parent="1" vertex="1">
          <mxGeometry x="-730" y="-305" width="120" height="40" as="geometry" />
        </mxCell>
        <mxCell id="lEjw1TeFjgP80U_XgumD-243" value="prescription" style="rounded=0;whiteSpace=wrap;html=1;strokeWidth=2;fontSize=17;fontStyle=1;fillColor=#f5f5f5;fontColor=#333333;strokeColor=#666666;" parent="1" vertex="1">
          <mxGeometry x="-790" y="-110" width="120" height="40" as="geometry" />
        </mxCell>
        <mxCell id="lEjw1TeFjgP80U_XgumD-246" value="reports" style="rounded=0;whiteSpace=wrap;html=1;strokeWidth=2;fontSize=17;fontStyle=1;fillColor=#f5f5f5;fontColor=#333333;strokeColor=#666666;" parent="1" vertex="1">
          <mxGeometry x="-820" y="140" width="120" height="40" as="geometry" />
        </mxCell>
        <mxCell id="lEjw1TeFjgP80U_XgumD-247" value="" style="endArrow=none;html=1;rounded=0;entryX=1;entryY=0.5;entryDx=0;entryDy=0;strokeWidth=2;fontSize=17;fontStyle=1;exitX=0;exitY=0.5;exitDx=0;exitDy=0;" parent="1" source="lEjw1TeFjgP80U_XgumD-228" target="lEjw1TeFjgP80U_XgumD-246" edge="1">
          <mxGeometry width="50" height="50" relative="1" as="geometry">
            <mxPoint x="-530" y="-125" as="sourcePoint" />
            <mxPoint x="-610" y="-130" as="targetPoint" />
          </mxGeometry>
        </mxCell>
        <mxCell id="lEjw1TeFjgP80U_XgumD-249" value="" style="endArrow=none;html=1;rounded=0;entryX=1;entryY=0.5;entryDx=0;entryDy=0;exitX=0;exitY=0.5;exitDx=0;exitDy=0;strokeWidth=2;fontSize=17;fontStyle=1" parent="1" source="lEjw1TeFjgP80U_XgumD-243" target="lEjw1TeFjgP80U_XgumD-236" edge="1">
          <mxGeometry width="50" height="50" relative="1" as="geometry">
            <mxPoint x="-750" y="25" as="sourcePoint" />
            <mxPoint x="-828" y="46" as="targetPoint" />
            <Array as="points" />
          </mxGeometry>
        </mxCell>
        <mxCell id="lEjw1TeFjgP80U_XgumD-250" value="patient_age" style="ellipse;whiteSpace=wrap;html=1;strokeWidth=2;fontSize=17;fontStyle=1;fillColor=#f5f5f5;gradientColor=#b3b3b3;strokeColor=#666666;" parent="1" vertex="1">
          <mxGeometry x="-960" y="5" width="120" height="40" as="geometry" />
        </mxCell>
        <mxCell id="lEjw1TeFjgP80U_XgumD-251" value="" style="endArrow=none;html=1;rounded=0;entryX=1;entryY=0;entryDx=0;entryDy=0;exitX=0.372;exitY=1.05;exitDx=0;exitDy=0;strokeWidth=2;fontSize=17;fontStyle=1;exitPerimeter=0;" parent="1" source="lEjw1TeFjgP80U_XgumD-243" target="lEjw1TeFjgP80U_XgumD-250" edge="1">
          <mxGeometry width="50" height="50" relative="1" as="geometry">
            <mxPoint x="-750" y="5" as="sourcePoint" />
            <mxPoint x="-790" y="-30" as="targetPoint" />
            <Array as="points" />
          </mxGeometry>
        </mxCell>
        <mxCell id="lEjw1TeFjgP80U_XgumD-252" value="patient_gender" style="ellipse;whiteSpace=wrap;html=1;strokeWidth=2;fontSize=17;fontStyle=1;fillColor=#f5f5f5;gradientColor=#b3b3b3;strokeColor=#666666;" parent="1" vertex="1">
          <mxGeometry x="-870" y="50" width="120" height="40" as="geometry" />
        </mxCell>
        <mxCell id="lEjw1TeFjgP80U_XgumD-254" value="doctor_name" style="ellipse;whiteSpace=wrap;html=1;strokeWidth=2;fontSize=17;fontStyle=1;fillColor=#f5f5f5;gradientColor=#b3b3b3;strokeColor=#666666;" parent="1" vertex="1">
          <mxGeometry x="-742.5" y="40" width="115" height="40" as="geometry" />
        </mxCell>
        <mxCell id="lEjw1TeFjgP80U_XgumD-255" value="" style="endArrow=none;html=1;rounded=0;entryX=0.5;entryY=0;entryDx=0;entryDy=0;exitX=0.75;exitY=1;exitDx=0;exitDy=0;strokeWidth=2;fontSize=17;fontStyle=1;" parent="1" source="lEjw1TeFjgP80U_XgumD-243" target="lEjw1TeFjgP80U_XgumD-254" edge="1">
          <mxGeometry width="50" height="50" relative="1" as="geometry">
            <mxPoint x="-695" y="17" as="sourcePoint" />
            <mxPoint x="-770" y="-30" as="targetPoint" />
            <Array as="points" />
          </mxGeometry>
        </mxCell>
        <mxCell id="lEjw1TeFjgP80U_XgumD-257" value="&lt;font style=&quot;font-size: 24px;&quot;&gt;&lt;b&gt;DOCTOR APPOINTMENT SYSTEM&lt;/b&gt;&lt;/font&gt;" style="rounded=0;whiteSpace=wrap;html=1;fontStyle=4;fillColor=#ffcc99;strokeColor=#36393d;" parent="1" vertex="1">
          <mxGeometry x="-55" y="-720" width="420" height="60" as="geometry" />
        </mxCell>
        <mxCell id="wDb7TstbsJTFzF3oQ880-1" value="a_email" style="ellipse;whiteSpace=wrap;html=1;strokeWidth=2;fontSize=17;fontStyle=1;fillColor=#f5f5f5;gradientColor=#b3b3b3;strokeColor=#666666;" parent="1" vertex="1">
          <mxGeometry x="-862.5" y="-420" width="120" height="40" as="geometry" />
        </mxCell>
        <mxCell id="wDb7TstbsJTFzF3oQ880-2" value="" style="endArrow=none;html=1;rounded=0;strokeWidth=2;fontSize=17;fontStyle=1;exitX=0;exitY=0;exitDx=0;exitDy=0;" parent="1" source="lEjw1TeFjgP80U_XgumD-241" target="wDb7TstbsJTFzF3oQ880-1" edge="1">
          <mxGeometry width="50" height="50" relative="1" as="geometry">
            <mxPoint x="-745" y="-270" as="sourcePoint" />
            <mxPoint x="-770" y="-380" as="targetPoint" />
          </mxGeometry>
        </mxCell>
        <mxCell id="wDb7TstbsJTFzF3oQ880-3" value="a_address" style="ellipse;whiteSpace=wrap;html=1;strokeWidth=2;fontSize=17;fontStyle=1;fillColor=#f5f5f5;gradientColor=#b3b3b3;strokeColor=#666666;" parent="1" vertex="1">
          <mxGeometry x="-920" y="-370" width="120" height="40" as="geometry" />
        </mxCell>
        <mxCell id="wDb7TstbsJTFzF3oQ880-4" value="" style="endArrow=none;html=1;rounded=0;strokeWidth=2;fontSize=17;fontStyle=1;exitX=0;exitY=0.25;exitDx=0;exitDy=0;" parent="1" source="lEjw1TeFjgP80U_XgumD-241" edge="1">
          <mxGeometry width="50" height="50" relative="1" as="geometry">
            <mxPoint x="-800" y="-230" as="sourcePoint" />
            <mxPoint x="-840" y="-330" as="targetPoint" />
          </mxGeometry>
        </mxCell>
        <mxCell id="wDb7TstbsJTFzF3oQ880-5" value="a_date" style="ellipse;whiteSpace=wrap;html=1;strokeWidth=2;fontSize=17;fontStyle=1;fillColor=#f5f5f5;gradientColor=#b3b3b3;strokeColor=#666666;" parent="1" vertex="1">
          <mxGeometry x="-1000" y="-330" width="120" height="40" as="geometry" />
        </mxCell>
        <mxCell id="wDb7TstbsJTFzF3oQ880-6" value="" style="endArrow=none;html=1;rounded=0;strokeWidth=2;fontSize=17;fontStyle=1;exitX=0;exitY=0.5;exitDx=0;exitDy=0;entryX=1;entryY=0.5;entryDx=0;entryDy=0;" parent="1" source="lEjw1TeFjgP80U_XgumD-241" target="wDb7TstbsJTFzF3oQ880-5" edge="1">
          <mxGeometry width="50" height="50" relative="1" as="geometry">
            <mxPoint x="-810" y="-150" as="sourcePoint" />
            <mxPoint x="-850" y="-250" as="targetPoint" />
          </mxGeometry>
        </mxCell>
        <mxCell id="wDb7TstbsJTFzF3oQ880-7" value="a_dpt" style="ellipse;whiteSpace=wrap;html=1;strokeWidth=2;fontSize=17;fontStyle=1;fillColor=#f5f5f5;gradientColor=#b3b3b3;strokeColor=#666666;" parent="1" vertex="1">
          <mxGeometry x="-990" y="-280" width="120" height="40" as="geometry" />
        </mxCell>
        <mxCell id="wDb7TstbsJTFzF3oQ880-8" value="" style="endArrow=none;html=1;rounded=0;strokeWidth=2;fontSize=17;fontStyle=1;exitX=0;exitY=0.75;exitDx=0;exitDy=0;entryX=1;entryY=0.5;entryDx=0;entryDy=0;" parent="1" source="lEjw1TeFjgP80U_XgumD-241" target="wDb7TstbsJTFzF3oQ880-7" edge="1">
          <mxGeometry width="50" height="50" relative="1" as="geometry">
            <mxPoint x="-865" y="-125" as="sourcePoint" />
            <mxPoint x="-905" y="-225" as="targetPoint" />
          </mxGeometry>
        </mxCell>
        <mxCell id="wDb7TstbsJTFzF3oQ880-10" value="" style="endArrow=none;html=1;rounded=0;strokeWidth=2;fontSize=17;fontStyle=1;exitX=0.85;exitY=0.05;exitDx=0;exitDy=0;exitPerimeter=0;entryX=0.322;entryY=1.167;entryDx=0;entryDy=0;entryPerimeter=0;" parent="1" source="lEjw1TeFjgP80U_XgumD-241" edge="1">
          <mxGeometry width="50" height="50" relative="1" as="geometry">
            <mxPoint x="-470" y="-310" as="sourcePoint" />
            <mxPoint x="-571.3600000000004" y="-398.32000000000016" as="targetPoint" />
          </mxGeometry>
        </mxCell>
        <mxCell id="wDb7TstbsJTFzF3oQ880-11" value="a_phone" style="ellipse;whiteSpace=wrap;html=1;strokeWidth=2;fontSize=17;fontStyle=1;fillColor=#f5f5f5;gradientColor=#b3b3b3;strokeColor=#666666;" parent="1" vertex="1">
          <mxGeometry x="-870" y="-240" width="120" height="40" as="geometry" />
        </mxCell>
        <mxCell id="wDb7TstbsJTFzF3oQ880-12" value="" style="endArrow=none;html=1;rounded=0;strokeWidth=2;fontSize=17;fontStyle=1;exitX=0.35;exitY=0.967;exitDx=0;exitDy=0;exitPerimeter=0;entryX=1;entryY=0;entryDx=0;entryDy=0;" parent="1" source="lEjw1TeFjgP80U_XgumD-241" target="wDb7TstbsJTFzF3oQ880-11" edge="1">
          <mxGeometry width="50" height="50" relative="1" as="geometry">
            <mxPoint x="-750" y="-100" as="sourcePoint" />
            <mxPoint x="-790" y="-200" as="targetPoint" />
          </mxGeometry>
        </mxCell>
        <mxCell id="wDb7TstbsJTFzF3oQ880-13" value="a_problem" style="ellipse;whiteSpace=wrap;html=1;strokeWidth=2;fontSize=17;fontStyle=1;fillColor=#f5f5f5;gradientColor=#b3b3b3;strokeColor=#666666;" parent="1" vertex="1">
          <mxGeometry x="-790" y="-205" width="120" height="40" as="geometry" />
        </mxCell>
        <mxCell id="wDb7TstbsJTFzF3oQ880-14" value="" style="endArrow=none;html=1;rounded=0;strokeWidth=2;fontSize=17;fontStyle=1;exitX=0.5;exitY=1;exitDx=0;exitDy=0;entryX=0.663;entryY=0.008;entryDx=0;entryDy=0;entryPerimeter=0;" parent="1" source="lEjw1TeFjgP80U_XgumD-241" target="wDb7TstbsJTFzF3oQ880-13" edge="1">
          <mxGeometry width="50" height="50" relative="1" as="geometry">
            <mxPoint x="-637.5" y="-252.5" as="sourcePoint" />
            <mxPoint x="-660" y="-187.5" as="targetPoint" />
          </mxGeometry>
        </mxCell>
        <mxCell id="wDb7TstbsJTFzF3oQ880-15" value="a_shift" style="ellipse;whiteSpace=wrap;html=1;strokeWidth=2;fontSize=17;fontStyle=1;fillColor=#f5f5f5;gradientColor=#b3b3b3;strokeColor=#666666;" parent="1" vertex="1">
          <mxGeometry x="-660" y="-220" width="120" height="40" as="geometry" />
        </mxCell>
        <mxCell id="wDb7TstbsJTFzF3oQ880-16" value="" style="endArrow=none;html=1;rounded=0;strokeWidth=2;fontSize=17;fontStyle=1;entryX=0.75;entryY=1;entryDx=0;entryDy=0;exitX=0;exitY=0;exitDx=0;exitDy=0;" parent="1" source="wDb7TstbsJTFzF3oQ880-15" target="lEjw1TeFjgP80U_XgumD-241" edge="1">
          <mxGeometry width="50" height="50" relative="1" as="geometry">
            <mxPoint x="-620" y="-190" as="sourcePoint" />
            <mxPoint x="-650" y="-260" as="targetPoint" />
          </mxGeometry>
        </mxCell>
        <mxCell id="wDb7TstbsJTFzF3oQ880-17" value="" style="endArrow=classic;html=1;rounded=0;entryX=0;entryY=0.5;entryDx=0;entryDy=0;exitX=1;exitY=0.5;exitDx=0;exitDy=0;" parent="1" source="lEjw1TeFjgP80U_XgumD-226" target="lEjw1TeFjgP80U_XgumD-6" edge="1">
          <mxGeometry width="50" height="50" relative="1" as="geometry">
            <mxPoint x="-440" y="-150" as="sourcePoint" />
            <mxPoint x="-390" y="-200" as="targetPoint" />
          </mxGeometry>
        </mxCell>
        <mxCell id="wDb7TstbsJTFzF3oQ880-18" value="" style="endArrow=none;html=1;rounded=0;entryX=0.6;entryY=1.05;entryDx=0;entryDy=0;entryPerimeter=0;exitX=1;exitY=0;exitDx=0;exitDy=0;" parent="1" source="lEjw1TeFjgP80U_XgumD-252" target="lEjw1TeFjgP80U_XgumD-243" edge="1">
          <mxGeometry width="50" height="50" relative="1" as="geometry">
            <mxPoint x="-820" y="-50" as="sourcePoint" />
            <mxPoint x="-770" y="-100" as="targetPoint" />
          </mxGeometry>
        </mxCell>
        <mxCell id="wDb7TstbsJTFzF3oQ880-19" value="" style="endArrow=classic;html=1;rounded=0;entryX=0;entryY=0.75;entryDx=0;entryDy=0;exitX=1;exitY=0.5;exitDx=0;exitDy=0;" parent="1" source="lEjw1TeFjgP80U_XgumD-227" target="lEjw1TeFjgP80U_XgumD-6" edge="1">
          <mxGeometry width="50" height="50" relative="1" as="geometry">
            <mxPoint x="-310" y="-215" as="sourcePoint" />
            <mxPoint x="-410" y="-205" as="targetPoint" />
          </mxGeometry>
        </mxCell>
        <mxCell id="wDb7TstbsJTFzF3oQ880-20" value="p_id" style="ellipse;whiteSpace=wrap;html=1;strokeWidth=2;fontSize=17;fontStyle=5;fillColor=#f5f5f5;gradientColor=#b3b3b3;strokeColor=#666666;" parent="1" vertex="1">
          <mxGeometry x="-972.5" y="250" width="120" height="40" as="geometry" />
        </mxCell>
        <mxCell id="wDb7TstbsJTFzF3oQ880-21" value="" style="endArrow=none;html=1;rounded=0;entryX=1;entryY=0;entryDx=0;entryDy=0;exitX=0.372;exitY=1.05;exitDx=0;exitDy=0;strokeWidth=2;fontSize=17;fontStyle=1;exitPerimeter=0;" parent="1" target="wDb7TstbsJTFzF3oQ880-20" edge="1">
          <mxGeometry width="50" height="50" relative="1" as="geometry">
            <mxPoint x="-797.5" y="182" as="sourcePoint" />
            <mxPoint x="-842.5" y="220" as="targetPoint" />
            <Array as="points" />
          </mxGeometry>
        </mxCell>
        <mxCell id="wDb7TstbsJTFzF3oQ880-22" value="p_name" style="ellipse;whiteSpace=wrap;html=1;strokeWidth=2;fontSize=17;fontStyle=1;fillColor=#f5f5f5;gradientColor=#b3b3b3;strokeColor=#666666;" parent="1" vertex="1">
          <mxGeometry x="-922.5" y="300" width="120" height="40" as="geometry" />
        </mxCell>
        <mxCell id="wDb7TstbsJTFzF3oQ880-23" value="p_reports" style="ellipse;whiteSpace=wrap;html=1;strokeWidth=2;fontSize=17;fontStyle=1;fillColor=#f5f5f5;gradientColor=#b3b3b3;strokeColor=#666666;" parent="1" vertex="1">
          <mxGeometry x="-795" y="290" width="115" height="40" as="geometry" />
        </mxCell>
        <mxCell id="wDb7TstbsJTFzF3oQ880-24" value="" style="endArrow=none;html=1;rounded=0;entryX=0.5;entryY=0;entryDx=0;entryDy=0;exitX=0.75;exitY=1;exitDx=0;exitDy=0;strokeWidth=2;fontSize=17;fontStyle=1;" parent="1" target="wDb7TstbsJTFzF3oQ880-23" edge="1">
          <mxGeometry width="50" height="50" relative="1" as="geometry">
            <mxPoint x="-752.5" y="180" as="sourcePoint" />
            <mxPoint x="-822.5" y="220" as="targetPoint" />
            <Array as="points" />
          </mxGeometry>
        </mxCell>
        <mxCell id="wDb7TstbsJTFzF3oQ880-25" value="" style="endArrow=none;html=1;rounded=0;entryX=0.6;entryY=1.05;entryDx=0;entryDy=0;entryPerimeter=0;exitX=1;exitY=0;exitDx=0;exitDy=0;" parent="1" source="wDb7TstbsJTFzF3oQ880-22" edge="1">
          <mxGeometry width="50" height="50" relative="1" as="geometry">
            <mxPoint x="-872.5" y="200" as="sourcePoint" />
            <mxPoint x="-770.5" y="182" as="targetPoint" />
          </mxGeometry>
        </mxCell>
        <mxCell id="wDb7TstbsJTFzF3oQ880-26" value="" style="endArrow=classic;html=1;rounded=0;entryX=0;entryY=0.75;entryDx=0;entryDy=0;exitX=1;exitY=0.5;exitDx=0;exitDy=0;" parent="1" source="lEjw1TeFjgP80U_XgumD-228" edge="1">
          <mxGeometry width="50" height="50" relative="1" as="geometry">
            <mxPoint x="-390" y="-125" as="sourcePoint" />
            <mxPoint x="-190" y="-270" as="targetPoint" />
          </mxGeometry>
        </mxCell>
        <mxCell id="wDb7TstbsJTFzF3oQ880-27" value="" style="endArrow=classic;html=1;rounded=0;entryX=0;entryY=0.5;entryDx=0;entryDy=0;exitX=1;exitY=0.5;exitDx=0;exitDy=0;" parent="1" source="lEjw1TeFjgP80U_XgumD-2" target="lEjw1TeFjgP80U_XgumD-1" edge="1">
          <mxGeometry width="50" height="50" relative="1" as="geometry">
            <mxPoint x="205" y="-20" as="sourcePoint" />
            <mxPoint x="405" y="-295" as="targetPoint" />
          </mxGeometry>
        </mxCell>
        <mxCell id="wDb7TstbsJTFzF3oQ880-28" value="manage" style="rhombus;whiteSpace=wrap;html=1;strokeWidth=2;fontSize=17;fontStyle=1" parent="1" vertex="1">
          <mxGeometry x="450" y="-80" width="80" height="60" as="geometry" />
        </mxCell>
        <mxCell id="wDb7TstbsJTFzF3oQ880-29" value="" style="endArrow=classic;html=1;rounded=0;exitX=0.5;exitY=0;exitDx=0;exitDy=0;" parent="1" source="wDb7TstbsJTFzF3oQ880-28" edge="1">
          <mxGeometry width="50" height="50" relative="1" as="geometry">
            <mxPoint x="489" y="-230" as="sourcePoint" />
            <mxPoint x="489" y="-280" as="targetPoint" />
          </mxGeometry>
        </mxCell>
        <mxCell id="wDb7TstbsJTFzF3oQ880-30" value="u_problem" style="ellipse;whiteSpace=wrap;html=1;strokeWidth=2;fontSize=17;fontStyle=1;fillColor=#d5e8d4;gradientColor=#97d077;strokeColor=#82b366;" parent="1" vertex="1">
          <mxGeometry x="647.5" y="320" width="120" height="40" as="geometry" />
        </mxCell>
        <mxCell id="wDb7TstbsJTFzF3oQ880-31" value="" style="endArrow=none;html=1;rounded=0;entryX=0;entryY=0.5;entryDx=0;entryDy=0;exitX=0.857;exitY=0.964;exitDx=0;exitDy=0;strokeWidth=2;fontSize=17;fontStyle=1;exitPerimeter=0;" parent="1" source="lEjw1TeFjgP80U_XgumD-4" target="wDb7TstbsJTFzF3oQ880-30" edge="1">
          <mxGeometry width="50" height="50" relative="1" as="geometry">
            <mxPoint x="487.5" y="300" as="sourcePoint" />
            <mxPoint x="812.5" y="260" as="targetPoint" />
          </mxGeometry>
        </mxCell>
        <mxCell id="wDb7TstbsJTFzF3oQ880-34" value="u_shift" style="ellipse;whiteSpace=wrap;html=1;strokeWidth=2;fontSize=17;fontStyle=1;fillColor=#d5e8d4;gradientColor=#97d077;strokeColor=#82b366;" parent="1" vertex="1">
          <mxGeometry x="597.5" y="365.5" width="120" height="40" as="geometry" />
        </mxCell>
        <mxCell id="wDb7TstbsJTFzF3oQ880-35" value="" style="endArrow=none;html=1;rounded=0;entryX=0;entryY=0.5;entryDx=0;entryDy=0;exitX=0.75;exitY=1;exitDx=0;exitDy=0;strokeWidth=2;fontSize=17;fontStyle=1;" parent="1" source="lEjw1TeFjgP80U_XgumD-4" target="wDb7TstbsJTFzF3oQ880-34" edge="1">
          <mxGeometry width="50" height="50" relative="1" as="geometry">
            <mxPoint x="480.5" y="294.5" as="sourcePoint" />
            <mxPoint x="762.5" y="305.5" as="targetPoint" />
          </mxGeometry>
        </mxCell>
        <mxCell id="wDb7TstbsJTFzF3oQ880-36" value="user" style="rounded=0;whiteSpace=wrap;html=1;strokeWidth=2;fontSize=17;fontStyle=1;fillColor=#d5e8d4;strokeColor=#82b366;" parent="1" vertex="1">
          <mxGeometry x="50" y="200" width="120" height="40" as="geometry" />
        </mxCell>
        <mxCell id="wDb7TstbsJTFzF3oQ880-37" value="&lt;span style=&quot;font-size: 17px;&quot;&gt;u_name&lt;/span&gt;" style="ellipse;whiteSpace=wrap;html=1;strokeWidth=2;fontSize=17;fontStyle=1;fillColor=#dae8fc;gradientColor=#7ea6e0;strokeColor=#6c8ebf;" parent="1" vertex="1">
          <mxGeometry x="-130" y="220" width="120" height="40" as="geometry" />
        </mxCell>
        <mxCell id="wDb7TstbsJTFzF3oQ880-38" value="" style="endArrow=none;html=1;rounded=0;entryX=1;entryY=1;entryDx=0;entryDy=0;exitX=0;exitY=0.25;exitDx=0;exitDy=0;strokeWidth=2;fontSize=17;fontStyle=1" parent="1" source="wDb7TstbsJTFzF3oQ880-36" target="lEjw1TeFjgP80U_XgumD-28" edge="1">
          <mxGeometry width="50" height="50" relative="1" as="geometry">
            <mxPoint x="21" y="125" as="sourcePoint" />
            <mxPoint x="115" y="-30" as="targetPoint" />
          </mxGeometry>
        </mxCell>
        <mxCell id="wDb7TstbsJTFzF3oQ880-39" value="" style="endArrow=none;html=1;rounded=0;entryX=1;entryY=1;entryDx=0;entryDy=0;strokeWidth=2;fontSize=17;fontStyle=1;exitX=0;exitY=0.75;exitDx=0;exitDy=0;" parent="1" source="wDb7TstbsJTFzF3oQ880-36" target="wDb7TstbsJTFzF3oQ880-37" edge="1">
          <mxGeometry width="50" height="50" relative="1" as="geometry">
            <mxPoint x="-15" y="130" as="sourcePoint" />
            <mxPoint x="-15" y="-50" as="targetPoint" />
          </mxGeometry>
        </mxCell>
        <mxCell id="wDb7TstbsJTFzF3oQ880-40" value="" style="endArrow=none;html=1;rounded=0;strokeWidth=2;fontSize=17;fontStyle=1" parent="1" edge="1">
          <mxGeometry width="50" height="50" relative="1" as="geometry">
            <mxPoint x="470" y="-230" as="sourcePoint" />
            <mxPoint x="330" y="-230" as="targetPoint" />
          </mxGeometry>
        </mxCell>
        <mxCell id="wDb7TstbsJTFzF3oQ880-41" value="" style="endArrow=none;html=1;rounded=0;entryX=0.5;entryY=0;entryDx=0;entryDy=0;strokeWidth=2;fontSize=17;fontStyle=1" parent="1" target="lEjw1TeFjgP80U_XgumD-193" edge="1">
          <mxGeometry width="50" height="50" relative="1" as="geometry">
            <mxPoint x="335" y="-230" as="sourcePoint" />
            <mxPoint x="510" y="-140" as="targetPoint" />
          </mxGeometry>
        </mxCell>
        <mxCell id="wDb7TstbsJTFzF3oQ880-42" value="" style="endArrow=none;html=1;rounded=0;strokeWidth=2;fontSize=17;fontStyle=1;exitX=0.5;exitY=0;exitDx=0;exitDy=0;" parent="1" source="wDb7TstbsJTFzF3oQ880-36" edge="1">
          <mxGeometry width="50" height="50" relative="1" as="geometry">
            <mxPoint x="250" y="-220" as="sourcePoint" />
            <mxPoint x="110" y="-40" as="targetPoint" />
          </mxGeometry>
        </mxCell>
        <mxCell id="wDb7TstbsJTFzF3oQ880-43" value="" style="endArrow=none;html=1;rounded=0;strokeWidth=2;fontSize=17;fontStyle=1;exitX=0;exitY=0.5;exitDx=0;exitDy=0;" parent="1" source="lEjw1TeFjgP80U_XgumD-193" edge="1">
          <mxGeometry width="50" height="50" relative="1" as="geometry">
            <mxPoint x="260" y="-210" as="sourcePoint" />
            <mxPoint x="110" y="-40" as="targetPoint" />
          </mxGeometry>
        </mxCell>
        <mxCell id="wDb7TstbsJTFzF3oQ880-46" value="manage" style="rhombus;whiteSpace=wrap;html=1;strokeWidth=2;fontSize=17;fontStyle=1" parent="1" vertex="1">
          <mxGeometry x="700" y="-340" width="80" height="60" as="geometry" />
        </mxCell>
        <mxCell id="wDb7TstbsJTFzF3oQ880-47" value="&lt;u&gt;p_gender&lt;/u&gt;" style="ellipse;whiteSpace=wrap;html=1;strokeWidth=2;fontSize=17;fontStyle=1;fillColor=#fff2cc;gradientColor=#ffd966;strokeColor=#d6b656;" parent="1" vertex="1">
          <mxGeometry x="770" y="-370" width="120" height="40" as="geometry" />
        </mxCell>
        <mxCell id="wDb7TstbsJTFzF3oQ880-48" value="" style="endArrow=none;html=1;rounded=0;exitX=1;exitY=0.5;exitDx=0;exitDy=0;strokeWidth=2;fontSize=17;fontStyle=1;entryX=0.007;entryY=0.135;entryDx=0;entryDy=0;entryPerimeter=0;" parent="1" source="wDb7TstbsJTFzF3oQ880-47" target="lEjw1TeFjgP80U_XgumD-3" edge="1">
          <mxGeometry width="50" height="50" relative="1" as="geometry">
            <mxPoint x="940" y="-455" as="sourcePoint" />
            <mxPoint x="990" y="-320" as="targetPoint" />
          </mxGeometry>
        </mxCell>
        <mxCell id="wDb7TstbsJTFzF3oQ880-50" value="u_gender" style="ellipse;whiteSpace=wrap;html=1;strokeWidth=2;fontSize=17;fontStyle=1;fillColor=#d5e8d4;gradientColor=#97d077;strokeColor=#82b366;" parent="1" vertex="1">
          <mxGeometry x="292.5" y="135" width="120" height="40" as="geometry" />
        </mxCell>
        <mxCell id="wDb7TstbsJTFzF3oQ880-51" value="" style="endArrow=none;html=1;rounded=0;entryX=1;entryY=1;entryDx=0;entryDy=0;exitX=0;exitY=0.25;exitDx=0;exitDy=0;strokeWidth=2;fontSize=17;fontStyle=1;" parent="1" source="lEjw1TeFjgP80U_XgumD-4" target="wDb7TstbsJTFzF3oQ880-50" edge="1">
          <mxGeometry width="50" height="50" relative="1" as="geometry">
            <mxPoint x="422.5" y="255" as="sourcePoint" />
            <mxPoint x="467.5" y="175" as="targetPoint" />
          </mxGeometry>
        </mxCell>
        <mxCell id="wDb7TstbsJTFzF3oQ880-52" value="a_gender" style="ellipse;whiteSpace=wrap;html=1;strokeWidth=2;fontSize=17;fontStyle=1;fillColor=#f5f5f5;gradientColor=#b3b3b3;strokeColor=#666666;" parent="1" vertex="1">
          <mxGeometry x="-520" y="-407" width="120" height="40" as="geometry" />
        </mxCell>
        <mxCell id="wDb7TstbsJTFzF3oQ880-53" value="" style="endArrow=none;html=1;rounded=0;strokeWidth=2;fontSize=17;fontStyle=1;exitX=1;exitY=0.25;exitDx=0;exitDy=0;entryX=0.336;entryY=1.05;entryDx=0;entryDy=0;entryPerimeter=0;" parent="1" source="lEjw1TeFjgP80U_XgumD-241" target="wDb7TstbsJTFzF3oQ880-52" edge="1">
          <mxGeometry width="50" height="50" relative="1" as="geometry">
            <mxPoint x="-538" y="-265" as="sourcePoint" />
            <mxPoint x="-420" y="-372" as="targetPoint" />
          </mxGeometry>
        </mxCell>
        <mxCell id="wDb7TstbsJTFzF3oQ880-54" style="edgeStyle=orthogonalEdgeStyle;rounded=0;orthogonalLoop=1;jettySize=auto;html=1;exitX=0.5;exitY=1;exitDx=0;exitDy=0;" parent="1" source="wDb7TstbsJTFzF3oQ880-52" target="wDb7TstbsJTFzF3oQ880-52" edge="1">
          <mxGeometry relative="1" as="geometry" />
        </mxCell>
        <mxCell id="wDb7TstbsJTFzF3oQ880-55" value="" style="endArrow=classic;html=1;rounded=0;entryX=1;entryY=0.25;entryDx=0;entryDy=0;exitX=0;exitY=0.5;exitDx=0;exitDy=0;" parent="1" source="wDb7TstbsJTFzF3oQ880-46" target="lEjw1TeFjgP80U_XgumD-1" edge="1">
          <mxGeometry width="50" height="50" relative="1" as="geometry">
            <mxPoint x="690" y="-270" as="sourcePoint" />
            <mxPoint x="450" y="-290" as="targetPoint" />
          </mxGeometry>
        </mxCell>
        <mxCell id="wDb7TstbsJTFzF3oQ880-56" value="login" style="rounded=0;whiteSpace=wrap;html=1;strokeWidth=2;fontSize=17;fontStyle=1;" parent="1" vertex="1">
          <mxGeometry x="415" y="-525" width="120" height="40" as="geometry" />
        </mxCell>
        <mxCell id="wDb7TstbsJTFzF3oQ880-58" value="" style="endArrow=none;html=1;rounded=0;entryX=0.35;entryY=1;entryDx=0;entryDy=0;strokeWidth=2;fontSize=17;fontStyle=1;exitX=0.5;exitY=0;exitDx=0;exitDy=0;entryPerimeter=0;" parent="1" source="wDb7TstbsJTFzF3oQ880-56" edge="1">
          <mxGeometry width="50" height="50" relative="1" as="geometry">
            <mxPoint x="460" y="-490" as="sourcePoint" />
            <mxPoint x="401.99999999999955" y="-570" as="targetPoint" />
          </mxGeometry>
        </mxCell>
        <mxCell id="wDb7TstbsJTFzF3oQ880-59" value="username" style="ellipse;whiteSpace=wrap;html=1;strokeWidth=2;fontSize=17;fontStyle=5;" parent="1" vertex="1">
          <mxGeometry x="200" y="-590" width="120" height="40" as="geometry" />
        </mxCell>
        <mxCell id="wDb7TstbsJTFzF3oQ880-60" value="password" style="ellipse;shape=doubleEllipse;margin=3;whiteSpace=wrap;html=1;align=center;strokeWidth=2;fontSize=17;fontStyle=1;" parent="1" vertex="1">
          <mxGeometry x="260" y="-480" width="100" height="40" as="geometry" />
        </mxCell>
        <mxCell id="wDb7TstbsJTFzF3oQ880-61" value="" style="endArrow=none;html=1;rounded=0;entryX=1;entryY=0.5;entryDx=0;entryDy=0;exitX=0;exitY=0.75;exitDx=0;exitDy=0;strokeWidth=2;fontSize=17;fontStyle=1" parent="1" source="wDb7TstbsJTFzF3oQ880-56" target="wDb7TstbsJTFzF3oQ880-60" edge="1">
          <mxGeometry width="50" height="50" relative="1" as="geometry">
            <mxPoint x="400" y="-490" as="sourcePoint" />
            <mxPoint x="470" y="-590" as="targetPoint" />
          </mxGeometry>
        </mxCell>
        <mxCell id="wDb7TstbsJTFzF3oQ880-62" value="" style="endArrow=none;html=1;rounded=0;entryX=1;entryY=0.5;entryDx=0;entryDy=0;strokeWidth=2;fontSize=17;fontStyle=1" parent="1" source="wDb7TstbsJTFzF3oQ880-56" target="wDb7TstbsJTFzF3oQ880-59" edge="1">
          <mxGeometry width="50" height="50" relative="1" as="geometry">
            <mxPoint x="410" y="-510" as="sourcePoint" />
            <mxPoint x="480" y="-580" as="targetPoint" />
          </mxGeometry>
        </mxCell>
        <mxCell id="wDb7TstbsJTFzF3oQ880-63" value="has" style="rhombus;whiteSpace=wrap;html=1;strokeWidth=2;fontSize=17;fontStyle=1" parent="1" vertex="1">
          <mxGeometry x="450" y="-440" width="80" height="60" as="geometry" />
        </mxCell>
        <mxCell id="wDb7TstbsJTFzF3oQ880-64" value="" style="endArrow=classic;html=1;rounded=0;exitX=0.5;exitY=0;exitDx=0;exitDy=0;" parent="1" source="wDb7TstbsJTFzF3oQ880-63" edge="1">
          <mxGeometry width="50" height="50" relative="1" as="geometry">
            <mxPoint x="710" y="-290" as="sourcePoint" />
            <mxPoint x="490" y="-490" as="targetPoint" />
          </mxGeometry>
        </mxCell>
        <mxCell id="wDb7TstbsJTFzF3oQ880-65" value="" style="endArrow=classic;html=1;rounded=0;entryX=0.419;entryY=0;entryDx=0;entryDy=0;entryPerimeter=0;" parent="1" target="lEjw1TeFjgP80U_XgumD-1" edge="1">
          <mxGeometry width="50" height="50" relative="1" as="geometry">
            <mxPoint x="490" y="-380" as="sourcePoint" />
            <mxPoint x="500" y="-480" as="targetPoint" />
          </mxGeometry>
        </mxCell>
        <mxCell id="wDb7TstbsJTFzF3oQ880-66" value="has" style="rhombus;whiteSpace=wrap;html=1;strokeWidth=2;fontSize=17;fontStyle=1" parent="1" vertex="1">
          <mxGeometry x="15" y="-535" width="80" height="60" as="geometry" />
        </mxCell>
        <mxCell id="wDb7TstbsJTFzF3oQ880-67" value="" style="endArrow=none;html=1;rounded=0;entryX=0;entryY=0.5;entryDx=0;entryDy=0;exitX=1;exitY=0.5;exitDx=0;exitDy=0;strokeWidth=2;fontSize=17;fontStyle=1" parent="1" source="wDb7TstbsJTFzF3oQ880-66" target="wDb7TstbsJTFzF3oQ880-56" edge="1">
          <mxGeometry width="50" height="50" relative="1" as="geometry">
            <mxPoint x="536" y="25" as="sourcePoint" />
            <mxPoint x="630" y="-130" as="targetPoint" />
          </mxGeometry>
        </mxCell>
        <mxCell id="wDb7TstbsJTFzF3oQ880-68" value="" style="endArrow=none;html=1;rounded=0;exitX=0.795;exitY=-0.046;exitDx=0;exitDy=0;strokeWidth=2;fontSize=17;fontStyle=1;exitPerimeter=0;" parent="1" source="lEjw1TeFjgP80U_XgumD-6" edge="1">
          <mxGeometry width="50" height="50" relative="1" as="geometry">
            <mxPoint x="105" y="-495" as="sourcePoint" />
            <mxPoint x="-100" y="-620" as="targetPoint" />
          </mxGeometry>
        </mxCell>
        <mxCell id="wDb7TstbsJTFzF3oQ880-69" value="" style="endArrow=none;html=1;rounded=0;strokeWidth=2;fontSize=17;fontStyle=1;entryX=0;entryY=0.5;entryDx=0;entryDy=0;" parent="1" target="wDb7TstbsJTFzF3oQ880-66" edge="1">
          <mxGeometry width="50" height="50" relative="1" as="geometry">
            <mxPoint x="-90" y="-505" as="sourcePoint" />
            <mxPoint x="-88" y="-500" as="targetPoint" />
          </mxGeometry>
        </mxCell>
        <mxCell id="wDb7TstbsJTFzF3oQ880-70" value="has" style="rhombus;whiteSpace=wrap;html=1;strokeWidth=2;fontSize=17;fontStyle=1" parent="1" vertex="1">
          <mxGeometry x="650" y="-537.5" width="80" height="60" as="geometry" />
        </mxCell>
        <mxCell id="wDb7TstbsJTFzF3oQ880-71" value="" style="endArrow=none;html=1;rounded=0;exitX=1;exitY=0.5;exitDx=0;exitDy=0;strokeWidth=2;fontSize=17;fontStyle=1" parent="1" source="wDb7TstbsJTFzF3oQ880-70" edge="1">
          <mxGeometry width="50" height="50" relative="1" as="geometry">
            <mxPoint x="1171" y="22.5" as="sourcePoint" />
            <mxPoint x="990" y="-510" as="targetPoint" />
          </mxGeometry>
        </mxCell>
        <mxCell id="wDb7TstbsJTFzF3oQ880-72" value="" style="endArrow=none;html=1;rounded=0;exitX=0.332;exitY=-0.028;exitDx=0;exitDy=0;strokeWidth=2;fontSize=17;fontStyle=1;exitPerimeter=0;" parent="1" source="lEjw1TeFjgP80U_XgumD-3" edge="1">
          <mxGeometry width="50" height="50" relative="1" as="geometry">
            <mxPoint x="537" y="-312.5" as="sourcePoint" />
            <mxPoint x="990" y="-512" as="targetPoint" />
          </mxGeometry>
        </mxCell>
        <mxCell id="wDb7TstbsJTFzF3oQ880-73" value="" style="endArrow=none;html=1;rounded=0;strokeWidth=2;fontSize=17;fontStyle=1;entryX=0;entryY=0.5;entryDx=0;entryDy=0;" parent="1" target="wDb7TstbsJTFzF3oQ880-70" edge="1">
          <mxGeometry width="50" height="50" relative="1" as="geometry">
            <mxPoint x="535" y="-507.5" as="sourcePoint" />
            <mxPoint x="547" y="-502.5" as="targetPoint" />
          </mxGeometry>
        </mxCell>
        <mxCell id="wDb7TstbsJTFzF3oQ880-77" value="" style="endArrow=none;html=1;rounded=0;strokeWidth=2;fontSize=17;fontStyle=1" parent="1" edge="1">
          <mxGeometry width="50" height="50" relative="1" as="geometry">
            <mxPoint x="900" y="-200" as="sourcePoint" />
            <mxPoint x="540" y="-200" as="targetPoint" />
          </mxGeometry>
        </mxCell>
        <mxCell id="wDb7TstbsJTFzF3oQ880-78" value="" style="endArrow=none;html=1;rounded=0;strokeWidth=2;fontSize=17;fontStyle=1" parent="1" edge="1">
          <mxGeometry width="50" height="50" relative="1" as="geometry">
            <mxPoint x="900" y="-200" as="sourcePoint" />
            <mxPoint x="900" y="-120" as="targetPoint" />
          </mxGeometry>
        </mxCell>
        <mxCell id="wDb7TstbsJTFzF3oQ880-79" value="make" style="rhombus;whiteSpace=wrap;html=1;strokeWidth=2;fontSize=17;fontStyle=1" parent="1" vertex="1">
          <mxGeometry x="860" y="-120" width="80" height="60" as="geometry" />
        </mxCell>
        <mxCell id="wDb7TstbsJTFzF3oQ880-81" value="bills" style="rounded=0;whiteSpace=wrap;html=1;strokeWidth=2;fontSize=17;fontStyle=1;fillColor=#ffe6cc;strokeColor=#d79b00;" parent="1" vertex="1">
          <mxGeometry x="850" y="10" width="120" height="40" as="geometry" />
        </mxCell>
        <mxCell id="wDb7TstbsJTFzF3oQ880-82" value="name" style="ellipse;whiteSpace=wrap;html=1;strokeWidth=2;fontSize=17;fontStyle=1;fillColor=#d5e8d4;gradientColor=#97d077;strokeColor=#82b366;" parent="1" vertex="1">
          <mxGeometry x="990" y="-60" width="120" height="40" as="geometry" />
        </mxCell>
        <mxCell id="wDb7TstbsJTFzF3oQ880-83" value="" style="endArrow=none;html=1;rounded=0;entryX=0;entryY=0.5;entryDx=0;entryDy=0;exitX=0.593;exitY=-0.025;exitDx=0;exitDy=0;strokeWidth=2;fontSize=17;fontStyle=1;exitPerimeter=0;" parent="1" source="wDb7TstbsJTFzF3oQ880-81" target="wDb7TstbsJTFzF3oQ880-82" edge="1">
          <mxGeometry width="50" height="50" relative="1" as="geometry">
            <mxPoint x="917" as="sourcePoint" />
            <mxPoint x="1242" y="-90" as="targetPoint" />
          </mxGeometry>
        </mxCell>
        <mxCell id="wDb7TstbsJTFzF3oQ880-84" value="price" style="ellipse;whiteSpace=wrap;html=1;strokeWidth=2;fontSize=17;fontStyle=5;fillColor=#d5e8d4;gradientColor=#97d077;strokeColor=#82b366;" parent="1" vertex="1">
          <mxGeometry x="1010" y="-15" width="120" height="40" as="geometry" />
        </mxCell>
        <mxCell id="wDb7TstbsJTFzF3oQ880-85" value="" style="endArrow=none;html=1;rounded=0;entryX=0;entryY=0.5;entryDx=0;entryDy=0;exitX=1;exitY=0;exitDx=0;exitDy=0;strokeWidth=2;fontSize=17;fontStyle=1" parent="1" source="wDb7TstbsJTFzF3oQ880-81" target="wDb7TstbsJTFzF3oQ880-84" edge="1">
          <mxGeometry width="50" height="50" relative="1" as="geometry">
            <mxPoint x="917" y="20" as="sourcePoint" />
            <mxPoint x="1242" y="-20" as="targetPoint" />
          </mxGeometry>
        </mxCell>
        <mxCell id="wDb7TstbsJTFzF3oQ880-86" value="quantiy" style="ellipse;whiteSpace=wrap;html=1;strokeWidth=2;fontSize=17;fontStyle=1;fillColor=#d5e8d4;gradientColor=#97d077;strokeColor=#82b366;" parent="1" vertex="1">
          <mxGeometry x="1010" y="40" width="120" height="40" as="geometry" />
        </mxCell>
        <mxCell id="wDb7TstbsJTFzF3oQ880-87" value="" style="endArrow=none;html=1;rounded=0;entryX=0;entryY=0.5;entryDx=0;entryDy=0;exitX=1;exitY=0.75;exitDx=0;exitDy=0;strokeWidth=2;fontSize=17;fontStyle=1;" parent="1" source="wDb7TstbsJTFzF3oQ880-81" target="wDb7TstbsJTFzF3oQ880-86" edge="1">
          <mxGeometry width="50" height="50" relative="1" as="geometry">
            <mxPoint x="900" y="19" as="sourcePoint" />
            <mxPoint x="1182" y="30" as="targetPoint" />
          </mxGeometry>
        </mxCell>
        <mxCell id="wDb7TstbsJTFzF3oQ880-89" value="" style="endArrow=none;html=1;rounded=0;strokeWidth=2;fontSize=17;fontStyle=1" parent="1" edge="1">
          <mxGeometry width="50" height="50" relative="1" as="geometry">
            <mxPoint x="921" y="-210" as="sourcePoint" />
            <mxPoint x="561" y="-210" as="targetPoint" />
          </mxGeometry>
        </mxCell>
        <mxCell id="wDb7TstbsJTFzF3oQ880-90" value="" style="endArrow=none;html=1;rounded=0;strokeWidth=2;fontSize=17;fontStyle=1" parent="1" edge="1">
          <mxGeometry width="50" height="50" relative="1" as="geometry">
            <mxPoint x="921" y="-210" as="sourcePoint" />
            <mxPoint x="921" y="-130" as="targetPoint" />
          </mxGeometry>
        </mxCell>
        <mxCell id="wDb7TstbsJTFzF3oQ880-91" value="add" style="rhombus;whiteSpace=wrap;html=1;strokeWidth=2;fontSize=17;fontStyle=1" parent="1" vertex="1">
          <mxGeometry x="990" y="-170" width="80" height="70" as="geometry" />
        </mxCell>
        <mxCell id="wDb7TstbsJTFzF3oQ880-93" value="" style="endArrow=none;html=1;rounded=0;strokeWidth=2;fontSize=17;fontStyle=1;entryX=0;entryY=0.5;entryDx=0;entryDy=0;" parent="1" target="wDb7TstbsJTFzF3oQ880-91" edge="1">
          <mxGeometry width="50" height="50" relative="1" as="geometry">
            <mxPoint x="920" y="-135" as="sourcePoint" />
            <mxPoint x="931" y="-120" as="targetPoint" />
          </mxGeometry>
        </mxCell>
        <mxCell id="wDb7TstbsJTFzF3oQ880-94" value="reports" style="rounded=0;whiteSpace=wrap;html=1;strokeWidth=2;fontSize=17;fontStyle=1;fillColor=#ffe6cc;strokeColor=#d79b00;" parent="1" vertex="1">
          <mxGeometry x="1160" y="-150" width="120" height="40" as="geometry" />
        </mxCell>
        <mxCell id="wDb7TstbsJTFzF3oQ880-95" value="p_name" style="ellipse;whiteSpace=wrap;html=1;strokeWidth=2;fontSize=17;fontStyle=1;fillColor=#f5f5f5;strokeColor=#666666;fontColor=#333333;" parent="1" vertex="1">
          <mxGeometry x="1310" y="-250" width="120" height="40" as="geometry" />
        </mxCell>
        <mxCell id="wDb7TstbsJTFzF3oQ880-96" value="" style="endArrow=none;html=1;rounded=0;entryX=0;entryY=0.5;entryDx=0;entryDy=0;exitX=0.593;exitY=-0.025;exitDx=0;exitDy=0;strokeWidth=2;fontSize=17;fontStyle=1;exitPerimeter=0;" parent="1" target="wDb7TstbsJTFzF3oQ880-95" edge="1">
          <mxGeometry width="50" height="50" relative="1" as="geometry">
            <mxPoint x="1270" y="-151" as="sourcePoint" />
            <mxPoint x="1591" y="-250" as="targetPoint" />
          </mxGeometry>
        </mxCell>
        <mxCell id="wDb7TstbsJTFzF3oQ880-97" value="p_id" style="ellipse;whiteSpace=wrap;html=1;strokeWidth=2;fontSize=17;fontStyle=5;fillColor=#f5f5f5;strokeColor=#666666;fontColor=#333333;" parent="1" vertex="1">
          <mxGeometry x="1339" y="-190" width="120" height="40" as="geometry" />
        </mxCell>
        <mxCell id="wDb7TstbsJTFzF3oQ880-98" value="" style="endArrow=none;html=1;rounded=0;entryX=0;entryY=0.5;entryDx=0;entryDy=0;exitX=1;exitY=0;exitDx=0;exitDy=0;strokeWidth=2;fontSize=17;fontStyle=1" parent="1" source="wDb7TstbsJTFzF3oQ880-94" target="wDb7TstbsJTFzF3oQ880-97" edge="1">
          <mxGeometry width="50" height="50" relative="1" as="geometry">
            <mxPoint x="1319" y="-150" as="sourcePoint" />
            <mxPoint x="1591" y="-180" as="targetPoint" />
          </mxGeometry>
        </mxCell>
        <mxCell id="wDb7TstbsJTFzF3oQ880-99" value="p_reports" style="ellipse;whiteSpace=wrap;html=1;strokeWidth=2;fontSize=17;fontStyle=1;fillColor=#f5f5f5;strokeColor=#666666;fontColor=#333333;" parent="1" vertex="1">
          <mxGeometry x="1359" y="-140" width="120" height="40" as="geometry" />
        </mxCell>
        <mxCell id="wDb7TstbsJTFzF3oQ880-100" value="" style="endArrow=none;html=1;rounded=0;entryX=0;entryY=0.5;entryDx=0;entryDy=0;exitX=1;exitY=0.75;exitDx=0;exitDy=0;strokeWidth=2;fontSize=17;fontStyle=1;" parent="1" source="wDb7TstbsJTFzF3oQ880-94" target="wDb7TstbsJTFzF3oQ880-99" edge="1">
          <mxGeometry width="50" height="50" relative="1" as="geometry">
            <mxPoint x="1319" y="-120" as="sourcePoint" />
            <mxPoint x="1531" y="-130" as="targetPoint" />
          </mxGeometry>
        </mxCell>
        <mxCell id="wDb7TstbsJTFzF3oQ880-102" value="" style="endArrow=none;html=1;rounded=0;entryX=0.5;entryY=1;entryDx=0;entryDy=0;exitX=0.416;exitY=-0.056;exitDx=0;exitDy=0;strokeWidth=2;fontSize=17;fontStyle=1;exitPerimeter=0;" parent="1" source="wDb7TstbsJTFzF3oQ880-81" target="wDb7TstbsJTFzF3oQ880-79" edge="1">
          <mxGeometry width="50" height="50" relative="1" as="geometry">
            <mxPoint x="931" y="19" as="sourcePoint" />
            <mxPoint x="1000" y="-30" as="targetPoint" />
          </mxGeometry>
        </mxCell>
        <mxCell id="wDb7TstbsJTFzF3oQ880-103" value="" style="endArrow=none;html=1;rounded=0;exitX=1;exitY=0.5;exitDx=0;exitDy=0;strokeWidth=2;fontSize=17;fontStyle=1;entryX=-0.004;entryY=0.394;entryDx=0;entryDy=0;entryPerimeter=0;" parent="1" source="wDb7TstbsJTFzF3oQ880-91" target="wDb7TstbsJTFzF3oQ880-94" edge="1">
          <mxGeometry width="50" height="50" relative="1" as="geometry">
            <mxPoint x="941" y="29" as="sourcePoint" />
            <mxPoint x="1160" y="-140" as="targetPoint" />
          </mxGeometry>
        </mxCell>
        <mxCell id="wDb7TstbsJTFzF3oQ880-116" value="" style="endArrow=classic;html=1;rounded=0;entryX=0.25;entryY=1;entryDx=0;entryDy=0;" parent="1" target="lEjw1TeFjgP80U_XgumD-1" edge="1">
          <mxGeometry width="50" height="50" relative="1" as="geometry">
            <mxPoint x="470" y="-230" as="sourcePoint" />
            <mxPoint x="499" y="-270" as="targetPoint" />
          </mxGeometry>
        </mxCell>
        <mxCell id="wDb7TstbsJTFzF3oQ880-118" value="make payment" style="rhombus;whiteSpace=wrap;html=1;strokeWidth=2;fontSize=17;fontStyle=1" parent="1" vertex="1">
          <mxGeometry x="170" y="-145" width="150" height="90" as="geometry" />
        </mxCell>
        <mxCell id="wDb7TstbsJTFzF3oQ880-119" value="" style="endArrow=none;html=1;rounded=0;strokeWidth=2;fontSize=17;fontStyle=1" parent="1" edge="1">
          <mxGeometry width="50" height="50" relative="1" as="geometry">
            <mxPoint x="450" y="-240" as="sourcePoint" />
            <mxPoint x="240" y="-240" as="targetPoint" />
          </mxGeometry>
        </mxCell>
        <mxCell id="wDb7TstbsJTFzF3oQ880-120" value="" style="endArrow=none;html=1;rounded=0;entryX=0.5;entryY=0;entryDx=0;entryDy=0;strokeWidth=2;fontSize=17;fontStyle=1" parent="1" target="wDb7TstbsJTFzF3oQ880-118" edge="1">
          <mxGeometry width="50" height="50" relative="1" as="geometry">
            <mxPoint x="245" y="-240" as="sourcePoint" />
            <mxPoint x="420" y="-200" as="targetPoint" />
          </mxGeometry>
        </mxCell>
        <mxCell id="wDb7TstbsJTFzF3oQ880-121" value="" style="endArrow=none;html=1;rounded=0;strokeWidth=2;fontSize=17;fontStyle=1;" parent="1" edge="1">
          <mxGeometry width="50" height="50" relative="1" as="geometry">
            <mxPoint x="20" y="-10" as="sourcePoint" />
            <mxPoint x="20" y="-100" as="targetPoint" />
          </mxGeometry>
        </mxCell>
        <mxCell id="wDb7TstbsJTFzF3oQ880-122" value="" style="endArrow=none;html=1;rounded=0;strokeWidth=2;fontSize=17;fontStyle=1;exitX=0;exitY=0.5;exitDx=0;exitDy=0;" parent="1" source="wDb7TstbsJTFzF3oQ880-118" edge="1">
          <mxGeometry width="50" height="50" relative="1" as="geometry">
            <mxPoint x="170" y="-270" as="sourcePoint" />
            <mxPoint x="20" y="-100" as="targetPoint" />
          </mxGeometry>
        </mxCell>
        <mxCell id="wDb7TstbsJTFzF3oQ880-124" value="" style="endArrow=classic;html=1;rounded=0;entryX=0.066;entryY=1.042;entryDx=0;entryDy=0;entryPerimeter=0;" parent="1" target="lEjw1TeFjgP80U_XgumD-1" edge="1">
          <mxGeometry width="50" height="50" relative="1" as="geometry">
            <mxPoint x="448" y="-240" as="sourcePoint" />
            <mxPoint x="480" y="-270" as="targetPoint" />
          </mxGeometry>
        </mxCell>
        <mxCell id="wDb7TstbsJTFzF3oQ880-125" value="doctor salary&lt;br&gt;" style="rounded=0;whiteSpace=wrap;html=1;strokeWidth=2;fontSize=17;fontStyle=1;fillColor=#f5f5f5;fontColor=#333333;strokeColor=#666666;" parent="1" vertex="1">
          <mxGeometry x="-30" y="-10" width="120" height="40" as="geometry" />
        </mxCell>
        <mxCell id="wDb7TstbsJTFzF3oQ880-126" value="&lt;u style=&quot;font-size: 17px;&quot;&gt;d_id&lt;/u&gt;" style="ellipse;whiteSpace=wrap;html=1;strokeWidth=2;fontSize=17;fontStyle=1;fillColor=#dae8fc;gradientColor=#7ea6e0;strokeColor=#6c8ebf;" parent="1" vertex="1">
          <mxGeometry x="-210" y="-40" width="120" height="40" as="geometry" />
        </mxCell>
        <mxCell id="wDb7TstbsJTFzF3oQ880-127" value="&lt;span style=&quot;font-size: 17px;&quot;&gt;d_name&lt;/span&gt;" style="ellipse;whiteSpace=wrap;html=1;strokeWidth=2;fontSize=17;fontStyle=1;fillColor=#dae8fc;gradientColor=#7ea6e0;strokeColor=#6c8ebf;" parent="1" vertex="1">
          <mxGeometry x="-210" y="10" width="120" height="40" as="geometry" />
        </mxCell>
        <mxCell id="wDb7TstbsJTFzF3oQ880-128" value="" style="endArrow=none;html=1;rounded=0;entryX=1;entryY=1;entryDx=0;entryDy=0;exitX=0;exitY=0.25;exitDx=0;exitDy=0;strokeWidth=2;fontSize=17;fontStyle=1" parent="1" target="wDb7TstbsJTFzF3oQ880-126" edge="1">
          <mxGeometry width="50" height="50" relative="1" as="geometry">
            <mxPoint x="-30" as="sourcePoint" />
            <mxPoint x="35" y="-240" as="targetPoint" />
          </mxGeometry>
        </mxCell>
        <mxCell id="wDb7TstbsJTFzF3oQ880-129" value="" style="endArrow=none;html=1;rounded=0;entryX=1;entryY=1;entryDx=0;entryDy=0;strokeWidth=2;fontSize=17;fontStyle=1;exitX=0;exitY=0.75;exitDx=0;exitDy=0;" parent="1" target="wDb7TstbsJTFzF3oQ880-127" edge="1">
          <mxGeometry width="50" height="50" relative="1" as="geometry">
            <mxPoint x="-30" y="20" as="sourcePoint" />
            <mxPoint x="-95" y="-260" as="targetPoint" />
          </mxGeometry>
        </mxCell>
        <mxCell id="wDb7TstbsJTFzF3oQ880-130" value="&lt;span style=&quot;font-size: 17px;&quot;&gt;d_salary&lt;br&gt;&lt;br&gt;&lt;/span&gt;" style="ellipse;whiteSpace=wrap;html=1;strokeWidth=2;fontSize=17;fontStyle=1;fillColor=#dae8fc;gradientColor=#7ea6e0;strokeColor=#6c8ebf;" parent="1" vertex="1">
          <mxGeometry x="-200" y="70" width="120" height="40" as="geometry" />
        </mxCell>
        <mxCell id="wDb7TstbsJTFzF3oQ880-132" value="" style="endArrow=none;html=1;rounded=0;entryX=0.942;entryY=0.175;entryDx=0;entryDy=0;exitX=0.174;exitY=1.017;exitDx=0;exitDy=0;strokeWidth=2;fontSize=17;fontStyle=1;exitPerimeter=0;entryPerimeter=0;" parent="1" source="wDb7TstbsJTFzF3oQ880-125" target="wDb7TstbsJTFzF3oQ880-130" edge="1">
          <mxGeometry width="50" height="50" relative="1" as="geometry">
            <mxPoint x="-10" y="95" as="sourcePoint" />
            <mxPoint x="55" y="-145" as="targetPoint" />
          </mxGeometry>
        </mxCell>
        <mxCell id="wDb7TstbsJTFzF3oQ880-134" value="" style="endArrow=none;html=1;rounded=0;strokeWidth=2;fontSize=17;fontStyle=1" parent="1" edge="1">
          <mxGeometry width="50" height="50" relative="1" as="geometry">
            <mxPoint x="760" y="-630" as="sourcePoint" />
            <mxPoint x="1014.33" y="-629" as="targetPoint" />
          </mxGeometry>
        </mxCell>
        <mxCell id="wDb7TstbsJTFzF3oQ880-136" value="" style="endArrow=none;html=1;rounded=0;strokeWidth=2;fontSize=17;fontStyle=1;entryX=0;entryY=0.5;entryDx=0;entryDy=0;" parent="1" target="wDb7TstbsJTFzF3oQ880-137" edge="1">
          <mxGeometry width="50" height="50" relative="1" as="geometry">
            <mxPoint x="-100" y="-620" as="sourcePoint" />
            <mxPoint x="674.33" y="-626" as="targetPoint" />
          </mxGeometry>
        </mxCell>
        <mxCell id="wDb7TstbsJTFzF3oQ880-137" value="see&lt;br&gt;list" style="rhombus;whiteSpace=wrap;html=1;strokeWidth=2;fontSize=17;fontStyle=1" parent="1" vertex="1">
          <mxGeometry x="677.5" y="-660" width="80" height="60" as="geometry" />
        </mxCell>
        <mxCell id="wDb7TstbsJTFzF3oQ880-138" value="" style="endArrow=none;html=1;rounded=0;exitX=0.891;exitY=-0.046;exitDx=0;exitDy=0;strokeWidth=2;fontSize=17;fontStyle=1;exitPerimeter=0;" parent="1" source="lEjw1TeFjgP80U_XgumD-6" edge="1">
          <mxGeometry width="50" height="50" relative="1" as="geometry">
            <mxPoint x="-95" y="-302" as="sourcePoint" />
            <mxPoint x="-90" y="-510" as="targetPoint" />
          </mxGeometry>
        </mxCell>
        <mxCell id="wDb7TstbsJTFzF3oQ880-139" value="" style="endArrow=classic;html=1;rounded=0;entryX=0.5;entryY=0;entryDx=0;entryDy=0;" parent="1" target="lEjw1TeFjgP80U_XgumD-3" edge="1">
          <mxGeometry width="50" height="50" relative="1" as="geometry">
            <mxPoint x="1010" y="-630" as="sourcePoint" />
            <mxPoint x="570" y="-300" as="targetPoint" />
          </mxGeometry>
        </mxCell>
        <mxCell id="wDb7TstbsJTFzF3oQ880-140" value="" style="endArrow=classic;html=1;rounded=0;entryX=0.625;entryY=0.033;entryDx=0;entryDy=0;entryPerimeter=0;" parent="1" target="lEjw1TeFjgP80U_XgumD-3" edge="1">
          <mxGeometry width="50" height="50" relative="1" as="geometry">
            <mxPoint x="1030" y="-560" as="sourcePoint" />
            <mxPoint x="1020" y="-320" as="targetPoint" />
          </mxGeometry>
        </mxCell>
        <mxCell id="wDb7TstbsJTFzF3oQ880-141" value="see" style="rhombus;whiteSpace=wrap;html=1;strokeWidth=2;fontSize=17;fontStyle=1" parent="1" vertex="1">
          <mxGeometry x="1170" y="-590" width="80" height="60" as="geometry" />
        </mxCell>
        <mxCell id="wDb7TstbsJTFzF3oQ880-142" value="" style="endArrow=none;html=1;rounded=0;strokeWidth=2;fontSize=17;fontStyle=1;entryX=0;entryY=0.5;entryDx=0;entryDy=0;" parent="1" target="wDb7TstbsJTFzF3oQ880-141" edge="1">
          <mxGeometry width="50" height="50" relative="1" as="geometry">
            <mxPoint x="1030" y="-560" as="sourcePoint" />
            <mxPoint x="1024.33" y="-619" as="targetPoint" />
          </mxGeometry>
        </mxCell>
        <mxCell id="wDb7TstbsJTFzF3oQ880-143" value="medicine list" style="rounded=0;whiteSpace=wrap;html=1;strokeWidth=2;fontSize=17;fontStyle=1;fillColor=#ffe6cc;strokeColor=#d79b00;" parent="1" vertex="1">
          <mxGeometry x="1339" y="-580" width="120" height="40" as="geometry" />
        </mxCell>
        <mxCell id="wDb7TstbsJTFzF3oQ880-144" value="" style="endArrow=none;html=1;rounded=0;strokeWidth=2;fontSize=17;fontStyle=1;" parent="1" edge="1">
          <mxGeometry width="50" height="50" relative="1" as="geometry">
            <mxPoint x="1250" y="-560.45" as="sourcePoint" />
            <mxPoint x="1340" y="-560" as="targetPoint" />
          </mxGeometry>
        </mxCell>
        <mxCell id="wDb7TstbsJTFzF3oQ880-145" value="medicine_id" style="ellipse;whiteSpace=wrap;html=1;strokeWidth=2;fontSize=17;fontStyle=5;fillColor=#f5f5f5;strokeColor=#666666;fontColor=#333333;" parent="1" vertex="1">
          <mxGeometry x="1490" y="-560" width="120" height="40" as="geometry" />
        </mxCell>
        <mxCell id="wDb7TstbsJTFzF3oQ880-146" value="" style="endArrow=none;html=1;rounded=0;entryX=0;entryY=0.5;entryDx=0;entryDy=0;exitX=1;exitY=0.75;exitDx=0;exitDy=0;strokeWidth=2;fontSize=17;fontStyle=1;" parent="1" source="wDb7TstbsJTFzF3oQ880-143" target="wDb7TstbsJTFzF3oQ880-145" edge="1">
          <mxGeometry width="50" height="50" relative="1" as="geometry">
            <mxPoint x="1450" y="-461" as="sourcePoint" />
            <mxPoint x="1771" y="-560" as="targetPoint" />
          </mxGeometry>
        </mxCell>
        <mxCell id="wDb7TstbsJTFzF3oQ880-147" value="m_name" style="ellipse;whiteSpace=wrap;html=1;strokeWidth=2;fontSize=17;fontStyle=1;fillColor=#f5f5f5;strokeColor=#666666;fontColor=#333333;" parent="1" vertex="1">
          <mxGeometry x="1500" y="-515" width="120" height="40" as="geometry" />
        </mxCell>
        <mxCell id="wDb7TstbsJTFzF3oQ880-148" value="" style="endArrow=none;html=1;rounded=0;entryX=0;entryY=0.5;entryDx=0;entryDy=0;exitX=0.75;exitY=1;exitDx=0;exitDy=0;strokeWidth=2;fontSize=17;fontStyle=1;" parent="1" source="wDb7TstbsJTFzF3oQ880-143" target="wDb7TstbsJTFzF3oQ880-147" edge="1">
          <mxGeometry width="50" height="50" relative="1" as="geometry">
            <mxPoint x="1460" y="-460" as="sourcePoint" />
            <mxPoint x="1771" y="-490" as="targetPoint" />
          </mxGeometry>
        </mxCell>
        <mxCell id="wDb7TstbsJTFzF3oQ880-149" value="m_expire" style="ellipse;whiteSpace=wrap;html=1;strokeWidth=2;fontSize=17;fontStyle=1;fillColor=#f5f5f5;strokeColor=#666666;fontColor=#333333;" parent="1" vertex="1">
          <mxGeometry x="1470" y="-470" width="120" height="40" as="geometry" />
        </mxCell>
        <mxCell id="wDb7TstbsJTFzF3oQ880-150" value="" style="endArrow=none;html=1;rounded=0;entryX=0;entryY=0.5;entryDx=0;entryDy=0;exitX=0.5;exitY=1;exitDx=0;exitDy=0;strokeWidth=2;fontSize=17;fontStyle=1;" parent="1" source="wDb7TstbsJTFzF3oQ880-143" target="wDb7TstbsJTFzF3oQ880-149" edge="1">
          <mxGeometry width="50" height="50" relative="1" as="geometry">
            <mxPoint x="1460" y="-430" as="sourcePoint" />
            <mxPoint x="1711" y="-440" as="targetPoint" />
          </mxGeometry>
        </mxCell>
        <mxCell id="wDb7TstbsJTFzF3oQ880-151" value="m_manufacture" style="ellipse;whiteSpace=wrap;html=1;strokeWidth=2;fontSize=17;fontStyle=1;fillColor=#f5f5f5;strokeColor=#666666;fontColor=#333333;" parent="1" vertex="1">
          <mxGeometry x="1401" y="-425" width="120" height="40" as="geometry" />
        </mxCell>
        <mxCell id="wDb7TstbsJTFzF3oQ880-152" value="" style="endArrow=none;html=1;rounded=0;entryX=0.327;entryY=0.05;entryDx=0;entryDy=0;exitX=0.395;exitY=0.952;exitDx=0;exitDy=0;strokeWidth=2;fontSize=17;fontStyle=1;exitPerimeter=0;entryPerimeter=0;" parent="1" source="wDb7TstbsJTFzF3oQ880-143" target="wDb7TstbsJTFzF3oQ880-151" edge="1">
          <mxGeometry width="50" height="50" relative="1" as="geometry">
            <mxPoint x="1330" y="-495" as="sourcePoint" />
            <mxPoint x="1642" y="-395" as="targetPoint" />
          </mxGeometry>
        </mxCell>
        <mxCell id="Goiu6yX85a_92YdIV2Yn-1" value="&lt;b&gt;&lt;font style=&quot;font-size: 15px;&quot;&gt;a_age&lt;/font&gt;&lt;/b&gt;" style="ellipse;whiteSpace=wrap;html=1;align=center;dashed=1;fillColor=#f5f5f5;gradientColor=#b3b3b3;strokeColor=#666666;" parent="1" vertex="1">
          <mxGeometry x="-600" y="-440" width="100" height="40" as="geometry" />
        </mxCell>
        <mxCell id="Goiu6yX85a_92YdIV2Yn-2" value="&lt;b&gt;&lt;font style=&quot;font-size: 15px;&quot;&gt;p_age&lt;/font&gt;&lt;/b&gt;" style="ellipse;whiteSpace=wrap;html=1;align=center;dashed=1;fillColor=#fff2cc;gradientColor=#ffd966;strokeColor=#d6b656;" parent="1" vertex="1">
          <mxGeometry x="790" y="-280" width="100" height="40" as="geometry" />
        </mxCell>
        <mxCell id="Goiu6yX85a_92YdIV2Yn-3" value="&lt;b&gt;&lt;font style=&quot;font-size: 15px;&quot;&gt;d_age&lt;br&gt;&lt;br&gt;&lt;/font&gt;&lt;/b&gt;" style="ellipse;whiteSpace=wrap;html=1;align=center;dashed=1;fillColor=#f5f5f5;gradientColor=#b3b3b3;strokeColor=#666666;" parent="1" vertex="1">
          <mxGeometry x="-290" y="-470" width="100" height="40" as="geometry" />
        </mxCell>
        <mxCell id="Goiu6yX85a_92YdIV2Yn-4" value="&lt;b&gt;&lt;font style=&quot;font-size: 15px;&quot;&gt;u_age&lt;/font&gt;&lt;/b&gt;" style="ellipse;whiteSpace=wrap;html=1;align=center;dashed=1;fillColor=#d5e8d4;gradientColor=#97d077;strokeColor=#82b366;" parent="1" vertex="1">
          <mxGeometry x="380" y="90" width="100" height="40" as="geometry" />
        </mxCell>
        <mxCell id="Goiu6yX85a_92YdIV2Yn-8" value="selectuser" style="ellipse;shape=doubleEllipse;margin=3;whiteSpace=wrap;html=1;align=center;strokeWidth=2;fontSize=17;fontStyle=1;" parent="1" vertex="1">
          <mxGeometry x="360" y="-610" width="100" height="40" as="geometry" />
        </mxCell>
        <mxCell id="sJ3VUAFaAv1oE-yA7uuG-1" value="" style="endArrow=classic;html=1;rounded=0;entryX=0.831;entryY=1.065;entryDx=0;entryDy=0;entryPerimeter=0;" parent="1" target="lEjw1TeFjgP80U_XgumD-1" edge="1">
          <mxGeometry width="50" height="50" relative="1" as="geometry">
            <mxPoint x="540" y="-200" as="sourcePoint" />
            <mxPoint x="570" y="-300" as="targetPoint" />
          </mxGeometry>
        </mxCell>
        <mxCell id="sJ3VUAFaAv1oE-yA7uuG-2" value="" style="endArrow=classic;html=1;rounded=0;entryX=1.002;entryY=1.103;entryDx=0;entryDy=0;entryPerimeter=0;" parent="1" target="lEjw1TeFjgP80U_XgumD-1" edge="1">
          <mxGeometry width="50" height="50" relative="1" as="geometry">
            <mxPoint x="560" y="-210" as="sourcePoint" />
            <mxPoint x="580" y="-290" as="targetPoint" />
          </mxGeometry>
        </mxCell>
        <mxCell id="KZSMlPTbFI8uVXpx_iFJ-3" value="medicine_name" style="ellipse;whiteSpace=wrap;html=1;strokeWidth=2;fontSize=17;fontStyle=1;fillColor=#f5f5f5;gradientColor=#b3b3b3;strokeColor=#666666;" vertex="1" parent="1">
          <mxGeometry x="-657.5" y="-10" width="115" height="40" as="geometry" />
        </mxCell>
        <mxCell id="KZSMlPTbFI8uVXpx_iFJ-4" value="" style="endArrow=none;html=1;rounded=0;entryX=0.5;entryY=0;entryDx=0;entryDy=0;exitX=1;exitY=1;exitDx=0;exitDy=0;strokeWidth=2;fontSize=17;fontStyle=1;" edge="1" parent="1" target="KZSMlPTbFI8uVXpx_iFJ-3" source="lEjw1TeFjgP80U_XgumD-243">
          <mxGeometry width="50" height="50" relative="1" as="geometry">
            <mxPoint x="-690" y="-60" as="sourcePoint" />
            <mxPoint x="-760" y="-20" as="targetPoint" />
            <Array as="points" />
          </mxGeometry>
        </mxCell>
        <mxCell id="KZSMlPTbFI8uVXpx_iFJ-5" value="total_amount" style="ellipse;whiteSpace=wrap;html=1;strokeWidth=2;fontSize=17;fontStyle=1;fillColor=#d5e8d4;gradientColor=#97d077;strokeColor=#82b366;" vertex="1" parent="1">
          <mxGeometry x="1044.5" y="-109" width="120" height="40" as="geometry" />
        </mxCell>
        <mxCell id="KZSMlPTbFI8uVXpx_iFJ-6" value="" style="endArrow=none;html=1;rounded=0;entryX=0;entryY=0.5;entryDx=0;entryDy=0;exitX=0.5;exitY=0;exitDx=0;exitDy=0;strokeWidth=2;fontSize=17;fontStyle=1;" edge="1" parent="1" target="KZSMlPTbFI8uVXpx_iFJ-5" source="wDb7TstbsJTFzF3oQ880-81">
          <mxGeometry width="50" height="50" relative="1" as="geometry">
            <mxPoint x="975.5" y="-40" as="sourcePoint" />
            <mxPoint x="1296.5" y="-139" as="targetPoint" />
          </mxGeometry>
        </mxCell>
        <mxCell id="KZSMlPTbFI8uVXpx_iFJ-7" value="m_price" style="ellipse;whiteSpace=wrap;html=1;strokeWidth=2;fontSize=17;fontStyle=1;fillColor=#f5f5f5;strokeColor=#666666;fontColor=#333333;" vertex="1" parent="1">
          <mxGeometry x="1500" y="-663" width="120" height="40" as="geometry" />
        </mxCell>
        <mxCell id="KZSMlPTbFI8uVXpx_iFJ-8" value="" style="endArrow=none;html=1;rounded=0;entryX=0;entryY=1;entryDx=0;entryDy=0;exitX=0.5;exitY=0;exitDx=0;exitDy=0;strokeWidth=2;fontSize=17;fontStyle=1;" edge="1" parent="1" target="KZSMlPTbFI8uVXpx_iFJ-7" source="wDb7TstbsJTFzF3oQ880-143">
          <mxGeometry width="50" height="50" relative="1" as="geometry">
            <mxPoint x="1485" y="-780" as="sourcePoint" />
            <mxPoint x="1741" y="-633" as="targetPoint" />
          </mxGeometry>
        </mxCell>
      </root>
    </mxGraphModel>
  </diagram>
</mxfile>
